<svg width="48" height="48" viewBox="0 0 48 48" fill="none" xmlns="http://www.w3.org/2000/svg">
<rect x="0.5" y="0.5" width="47" height="47" rx="7.5" fill="white" stroke="#0D4CD3"/>
<path d="M36.5989 19.288C36.4888 17.8451 35.3874 15.9951 34.286 15.1072C33.0474 14.1984 31.7606 13.3585 30.4311 12.5912C29.1117 11.8031 27.7514 11.0868 26.3559 10.4453C25.6105 10.1388 24.8112 9.98781 24.0063 10.0013C23.2011 9.98425 22.401 10.1354 21.6566 10.4453C20.2614 11.0872 18.9011 11.8035 17.5815 12.5912C15.4521 13.8862 13.7266 15.1072 13.7266 15.1072C12.8722 15.8277 12.2132 16.7434 11.7979 17.7683C11.6724 18.078 11.9123 18.3999 12.2464 18.3999H13.5435C13.9151 18.3999 14.2499 18.1896 14.457 17.8812C14.7495 17.4456 15.1038 17.0499 15.5122 16.7078C15.5122 16.7078 16.9369 15.7067 18.6951 14.6448C19.7847 13.9989 20.9079 13.4115 22.0599 12.8851C22.6745 12.631 23.3351 12.5071 23.9999 12.521C24.6645 12.51 25.3245 12.6338 25.94 12.8851C27.0922 13.4111 28.2154 13.9985 29.3048 14.6448C30.4025 15.274 31.465 15.9627 32.4877 16.7078C33.3971 17.436 34.3065 18.9529 34.3974 20.1362C34.3974 20.1362 34.6096 21.8958 34.6399 23.9801C34.638 25.2674 34.5672 26.5536 34.4277 27.8332C34.2162 29.1731 33.527 30.391 32.4877 31.2615C32.4877 31.2615 31.0629 32.2931 29.3048 33.3549C28.2152 34.0008 27.092 34.5882 25.94 35.1146C25.3253 35.3687 24.6648 35.4927 23.9999 35.4787C23.3359 35.4926 22.676 35.3719 22.0599 35.1237C20.9077 34.5977 19.7845 34.0103 18.6951 33.3641C16.9369 32.3325 15.5122 31.2706 15.5122 31.2706C15.1526 30.9828 14.7931 30.5716 14.4822 30.1064C14.2792 29.8026 13.9479 29.5998 13.5825 29.5998H12.2591C11.9207 29.5998 11.6818 29.9289 11.8176 30.2389C12.2699 31.2716 12.9982 32.2795 13.7266 32.8667C13.7266 32.8667 15.4521 34.1616 17.5815 35.4196C18.9009 36.2077 20.2612 36.9241 21.6566 37.5655C22.4028 37.8682 23.2021 38.0154 24.0063 37.9984C24.8115 38.0155 25.6115 37.8643 26.3559 37.5544C27.7511 36.9125 29.1115 36.1962 30.4311 35.4085C32.5605 34.1135 34.286 32.8556 34.286 32.8556C35.5448 31.7939 36.3795 30.3087 36.6356 28.6747C36.8046 27.1142 36.8904 25.5456 36.8926 23.9758C36.8559 21.434 36.5989 19.288 36.5989 19.288Z" fill="url(#paint0_linear_33_677)"/>
<path d="M11.1199 20.9218C11.1199 20.6125 11.3707 20.3618 11.6799 20.3618H20.3599C20.6692 20.3618 20.9199 20.6125 20.9199 20.9218V22.6018C20.9199 22.9111 20.6692 23.1618 20.3599 23.1618H11.1199V20.9218Z" fill="#0066B3"/>
<path d="M11.1198 24.8416H28.7597C29.069 24.8416 29.3197 25.0923 29.3197 25.4015V27.0815C29.3197 27.3908 29.069 27.6415 28.7597 27.6415H11.6797C11.3705 27.6415 11.1198 27.3908 11.1198 27.0815V24.8416Z" fill="#EE2F53"/>
<defs>
<linearGradient id="paint0_linear_33_677" x1="24.2339" y1="10" x2="24.2339" y2="37.9998" gradientUnits="userSpaceOnUse">
<stop stop-color="#0066B3"/>
<stop offset="0.354167" stop-color="#0066B3"/>
<stop offset="0.6875" stop-color="#EE2F53"/>
<stop offset="1" stop-color="#EE2F53"/>
</linearGradient>
</defs>
</svg>
