<svg width="48" height="48" viewBox="0 0 48 48" fill="none" xmlns="http://www.w3.org/2000/svg">
<path d="M0 8C0 3.58172 3.58172 0 8 0H40C44.4183 0 48 3.58172 48 8V40C48 44.4183 44.4183 48 40 48H8C3.58172 48 0 44.4183 0 40V8Z" fill="#0077FF"/>
<path d="M13 23.56C13 18.582 13 16.093 14.5465 14.5465C16.093 13 18.582 13 23.56 13H24.44C29.418 13 31.907 13 33.4535 14.5465C35 16.093 35 18.582 35 23.56V24.44C35 29.418 35 31.907 33.4535 33.4535C31.907 35 29.418 35 24.44 35H23.56C18.582 35 16.093 35 14.5465 33.4535C13 31.907 13 29.418 13 24.44V23.56Z" fill="white"/>
<path d="M24.7065 28.9C19.6841 28.9 16.8194 25.4465 16.7 19.7H19.2158C19.2984 23.9178 21.1531 25.7043 22.6222 26.0727V19.7H24.9912V23.3376C26.4419 23.181 27.9659 21.5234 28.4801 19.7H30.849C30.4542 21.947 28.8015 23.6046 27.6262 24.2861C28.8015 24.8387 30.6838 26.2845 31.4 28.9H28.7923C28.2322 27.1502 26.8367 25.7964 24.9912 25.6123V28.9H24.7065Z" fill="#0077FF"/>
</svg>
