<svg width="199" height="199" viewBox="0 0 199 199" fill="none" xmlns="http://www.w3.org/2000/svg">
<rect y="98.7137" width="63.2348" height="63.2348" transform="rotate(-45 0 98.7137)" fill="#3BC9B1"/>
<path d="M37.7582 112H30.957L39.7908 85.8182H48.2156L57.0494 112H50.2482L44.0991 92.4148H43.8945L37.7582 112ZM36.8505 101.696H51.0664V106.503H36.8505V101.696Z" fill="white"/>
<rect x="54" y="44.7137" width="63.2348" height="63.2348" transform="rotate(-45 54 44.7137)" fill="#3A5D71"/>
<path d="M113.147 53.1037L112.827 64.1875H106.896V58H105.055V53.1037H113.147ZM86.9268 58V31.8182H93.0121V53.0398H103.035V31.8182H109.21V58H86.9268Z" fill="white"/>
<rect x="108.716" y="98.7137" width="63.2348" height="63.2348" transform="rotate(-45 108.716 98.7137)" fill="#459F9C"/>
<path d="M161.372 85.337V90.4762H149.816V111.519H143.487V85.337H161.372Z" fill="white"/>
<path d="M54 153.43L98.7138 108.716L143.428 153.43L98.7138 198.143L54 153.43Z" fill="#999999"/>
<path fill-rule="evenodd" clip-rule="evenodd" d="M107.378 169.765C102.752 169.765 100.914 170.882 99.4935 172.528C98.0559 170.882 95.7687 169.765 91.1706 169.765C87.6662 169.765 85.476 168.901 85.476 164.531C85.476 162.288 85.476 137.952 85.476 137.952H113.511C113.511 137.952 113.511 149.99 113.511 164.531C113.511 168.468 110.744 169.765 107.378 169.765ZM112.635 164.766V138.816H86.3521V164.766C86.3521 166.74 87.1406 167.518 87.5786 167.95C88.1566 168.52 89.4184 168.901 91.6086 168.901C95.2815 168.901 97.5975 169.666 99.4935 171.234C101.389 169.666 103.705 168.901 107.378 168.901C109.071 168.901 110.219 168.519 110.883 168.036C111.206 167.801 112.635 166.74 112.635 164.766ZM109.352 166.473C109.352 166.704 108.263 166.704 108.263 166.473C108.263 166.243 108.927 165.069 109.092 164.852C108.85 164.338 108.442 162.401 108.311 161.622C107.566 160.358 103.85 160.459 103.85 157.505C102.17 157.505 100.389 158.943 98.4986 159.155C98.3963 159.907 98.3089 160.715 98.1996 161.328C98.3089 162.049 98.4697 163.039 98.0913 164.849C98.115 165.055 98.2052 166.171 98.1684 166.356C98.1238 166.581 96.8852 166.647 96.8852 166.326C96.8852 166.005 97.3136 164.974 97.4883 164.849C97.6536 163.684 97.6601 163.158 97.6049 162.357C97.4402 162.219 97.2659 161.613 97.3074 161.328C97.3074 160.07 96.637 159.659 95.422 158.386C94.207 157.112 93.8869 155.74 93.8869 154.418C93.8869 152.404 96.1323 150.989 96.1323 149.951C96.1323 149.039 95.3353 148.978 95.0767 148.978C94.8183 148.978 94.4819 148.986 94.4819 148.684C94.0642 148.684 94.1005 148.096 94.3334 148.096C95.0305 148.096 96.0473 147.126 96.8981 146.848C96.3782 146.735 95.4084 146.39 94.8606 145.714C95.5129 146.023 96.0411 146.15 96.3542 146.184C96.1592 145.936 95.9808 145.635 95.823 145.283C95.4778 145.208 94.8459 144.926 94.623 144.303C94.8927 144.561 95.3552 144.701 95.6045 144.718C95.5094 144.434 95.4272 144.121 95.3566 143.785C95.3523 143.805 95.3459 143.822 95.3357 143.832C94.7527 143.558 94.4429 142.972 94.3854 142.421C94.5816 142.838 95.0309 143.094 95.235 143.098C95.1466 142.477 95.0982 141.781 95.0982 141.01C95.5101 142.73 96.0518 146.391 97.8123 146.391C97.9973 146.391 98.1812 146.38 98.3635 146.361C98.2069 145.961 98.1041 145.456 98.1868 144.773C98.3777 145.526 98.7277 146.022 98.9565 146.262C99.3089 146.183 99.6533 146.07 99.9857 145.925C99.9161 145.558 99.8943 144.861 99.8943 144.126C100.039 144.912 100.32 145.393 100.535 145.654C101.207 145.274 101.813 144.756 102.325 144.136C102.133 143.828 101.873 143.121 101.976 142.068C102.178 143.162 102.514 143.54 102.683 143.661C103.074 143.095 103.393 142.462 103.612 141.774C103.612 143.687 101.729 146.53 98.7902 146.994C99.2523 147.125 99.6265 147.214 100.578 146.92C100.578 147.684 99.4708 148.243 98.794 148.243C98.794 150.223 98.1991 150.641 98.1991 151.771C98.1991 153.09 98.7368 153.683 100.281 153.683C102.207 153.683 103.003 153.242 104.445 153.242C105.787 153.242 107.716 154.062 107.716 155.741C107.546 155.522 107.15 155.515 106.973 155.594C106.841 156.043 106.675 156.782 106.675 157.211C106.675 158.69 107.383 159.685 109.055 160.298C109.055 160.923 109.229 164.169 109.687 164.705C109.305 165.398 109.352 166.017 109.352 166.473ZM91.6567 156.917C91.4957 157.129 90.2904 158.353 90.1697 159.123C90.187 159.406 90.3182 160.129 90.3182 160.74C90.3182 161.111 89.2773 161.726 89.2773 161.475C89.2773 161.223 89.4092 159.875 89.5748 159.417C89.6955 158.899 90.7986 156.209 90.9131 156.035C91.0274 155.862 91.1457 155.65 91.508 155.594C91.934 155.528 92.8368 155.491 93.4412 155.741C93.5759 156.492 94.0761 157.697 94.7796 158.387C92.8767 158.057 92.6805 156.642 91.6567 156.917ZM103.553 161.328C102.588 160.571 101.998 159.643 101.632 158.651C102.227 158.316 102.8 158.056 103.478 158.056C103.478 159.062 104.412 159.967 105.101 160.374C104.914 160.6 104.316 161.474 104.078 162.101C103.841 162.729 103.376 163.899 103.404 164.856C103.117 165.257 102.841 165.715 102.789 166.032C102.744 166.307 101.471 166.39 101.471 166.032C101.471 165.78 102.388 164.931 102.809 164.709C102.809 164.279 103.021 162.138 103.553 161.328Z" fill="white"/>
<g clip-path="url(#clip0_201_3)">
<path d="M101.736 123.093L101.549 128.514L102.39 128.607L102.671 124.028L103.605 123.374C106.689 123.841 107.25 124.215 107.25 124.215L106.315 129.261L106.876 129.448L107.717 125.523L109.025 124.589L112.67 126.084C112.67 126.084 110.894 129.915 110.614 131.037C110.614 131.037 109.586 134.588 109.586 135.709C109.586 135.709 109.773 136.924 99.5869 136.924C89.4009 136.924 89.5878 135.709 89.5878 135.709C89.5878 134.588 88.5598 131.037 88.5598 131.037C88.2795 129.822 86.4105 125.99 86.4105 125.99L89.9616 124.402L91.2698 125.336L92.1109 129.261L92.6716 129.074L91.7371 124.028C91.7371 124.028 92.2978 123.654 95.3816 123.187L96.3161 123.841L96.5965 128.42L97.3441 128.327L97.1572 123C99.4 123 101.736 123.093 101.736 123.093Z" fill="white"/>
<path d="M99.4934 136.831C91.3633 136.831 89.7747 136.083 89.4943 135.709C89.4009 135.616 89.4009 135.522 89.4009 135.522C89.4009 134.401 88.4664 130.943 88.3729 130.943C88.0926 130.009 86.4105 126.177 86.317 126.084L89.8681 124.495L91.1764 125.43L92.0175 129.355L92.4847 129.168L91.5502 124.121C91.5502 124.121 92.1109 123.748 95.1947 123.28L96.1292 124.028L96.4096 128.607L97.0637 128.514V123.093H97.1572C99.4 123 101.83 123.093 101.83 123.093H101.923L101.736 128.514L102.39 128.607L102.577 124.121L103.512 123.374C106.596 123.841 107.156 124.215 107.156 124.215L106.222 129.261L106.689 129.448L107.53 125.523L108.838 124.589L112.483 126.177C112.483 126.271 110.707 130.009 110.427 131.13C110.427 131.224 109.399 134.681 109.399 135.803C109.399 135.803 109.399 135.896 109.306 135.989C109.119 135.989 107.717 136.831 99.4934 136.831ZM86.5039 126.084C86.6908 126.458 88.2795 129.915 88.5598 130.943C88.6533 131.13 89.5878 134.494 89.5878 135.616C89.5878 135.616 89.5878 135.709 89.6812 135.709C89.9616 135.989 91.5502 136.737 99.5869 136.737C107.624 136.737 109.212 135.989 109.493 135.709C109.586 135.616 109.586 135.616 109.586 135.616C109.586 134.494 110.521 131.13 110.614 130.943C110.801 129.915 112.39 126.458 112.67 126.084L108.932 124.495L107.624 125.43L106.783 129.355L106.222 129.168L107.156 124.121C106.969 124.028 106.222 123.748 103.605 123.28L102.671 123.934L102.484 128.607L101.643 128.514L101.83 123.093C101.549 123.093 99.3065 123 97.1572 123.093L97.3441 128.514L96.503 128.607V128.514L96.1292 123.934L95.1947 123.28C92.4847 123.748 91.7371 124.028 91.6437 124.121L92.5782 129.261L92.0175 129.355L91.1764 125.43L89.9616 124.495L86.5039 126.084Z" fill="#757575"/>
<path d="M89.9615 124.495L91.1764 129.635L92.0174 129.355L91.2698 125.43L89.9615 124.495Z" fill="#BEBEBE"/>
<path d="M109.025 124.869L107.81 130.009L106.969 129.728L107.81 125.804L109.025 124.869Z" fill="#BEBEBE"/>
<path d="M95.2882 123.374L95.8489 128.607H96.5031L96.1293 124.028L95.2882 123.374Z" fill="#BEBEBE"/>
<path d="M90.0356 124.559L89.9445 124.58L91.1246 129.678L91.2156 129.657L90.0356 124.559Z" fill="#757575"/>
<path d="M95.3758 123.383L95.2829 123.394L95.8638 128.594L95.9567 128.584L95.3758 123.383Z" fill="#757575"/>
<path d="M108.929 124.436L107.748 129.534L107.839 129.555L109.02 124.457L108.929 124.436Z" fill="#757575"/>
<path d="M103.536 123.292L102.945 128.585L103.038 128.596L103.629 123.302L103.536 123.292Z" fill="#757575"/>
<path d="M88.7467 127.766L87.9057 125.43L88.8402 127.672L88.7467 127.766Z" fill="#757575"/>
<path d="M88.8415 127.546L87.4768 128.157L87.515 128.242L88.8797 127.631L88.8415 127.546Z" fill="#757575"/>
<path d="M90.6535 127.304L87.6454 128.588L87.6821 128.674L90.6902 127.39L90.6535 127.304Z" fill="#757575"/>
<path d="M90.541 126.917L89.0736 127.525L89.1094 127.611L90.5768 127.003L90.541 126.917Z" fill="#757575"/>
<path d="M88.3279 125.216L88.2401 125.248L89.0779 127.529L89.1656 127.497L88.3279 125.216Z" fill="#757575"/>
<path d="M93.2323 123.654L93.6995 126.177C93.6995 126.177 93.1388 126.364 92.1109 126.551L92.2044 126.925C92.2044 126.925 92.9519 126.645 95.662 126.177L95.5685 125.804C95.5685 125.804 94.5406 125.99 94.1668 125.99L93.6995 123.467C93.6995 123.561 93.5126 123.654 93.2323 123.654Z" fill="#BEBEBE"/>
<path d="M92.2044 127.018L92.1109 126.551C92.9519 126.364 93.4192 126.177 93.6061 126.177L93.1388 123.654C93.3257 123.654 93.4192 123.561 93.5126 123.561C93.6061 123.561 93.6061 123.561 93.6995 123.561H93.793L94.3537 125.99C94.634 125.99 95.662 125.804 95.662 125.804H95.7554V126.271C93.0454 126.738 92.2978 127.018 92.2044 127.018ZM92.2044 126.645L92.2978 126.925C92.4847 126.832 93.3257 126.645 95.662 126.271L95.5685 125.99C95.3816 125.99 94.5406 126.177 94.2602 126.177H94.1668L93.6995 123.654H93.6061C93.5126 123.654 93.4192 123.748 93.3257 123.748L93.793 126.271C93.6995 126.271 93.1388 126.364 92.2044 126.645Z" fill="#757575"/>
<path d="M99.1196 123.094V125.617C99.1196 125.617 97.4376 125.617 97.0638 125.617V126.177C97.0638 126.177 98.7458 125.99 101.643 126.177V125.617C101.643 125.617 100.054 125.523 99.4934 125.523V123.094C99.5869 123.094 99.1196 123.094 99.1196 123.094Z" fill="#BEBEBE"/>
<path d="M97.1572 126.271V125.617C97.3441 125.617 98.8393 125.617 99.1196 125.617V123.094H99.6803V125.617C100.241 125.617 101.736 125.71 101.736 125.71V126.271H101.643C98.9327 125.99 97.2507 126.271 97.1572 126.271ZM99.3065 125.99C99.9607 125.99 100.802 125.99 101.736 126.084V125.617C101.549 125.617 100.148 125.523 99.6803 125.523H99.4934V123.094H99.1196V125.617H99.0262C99.0262 125.617 97.4376 125.617 97.0638 125.617V126.084C97.4376 126.084 98.0917 125.99 99.3065 125.99Z" fill="#757575"/>
<path d="M110.967 125.408L110.07 127.666L110.157 127.7L111.054 125.442L110.967 125.408Z" fill="#757575"/>
<path d="M110.097 127.614L110.059 127.699L111.42 128.319L111.458 128.234L110.097 127.614Z" fill="#757575"/>
<path d="M108.289 127.322L108.253 127.408L111.263 128.689L111.299 128.603L108.289 127.322Z" fill="#757575"/>
<path d="M108.348 126.911L108.312 126.998L109.781 127.603L109.817 127.516L108.348 126.911Z" fill="#757575"/>
<path d="M109.773 127.486H109.679L110.614 125.243L109.773 127.486Z" fill="#757575"/>
<path d="M105.661 123.654L105.194 126.177C105.194 126.177 105.755 126.364 106.783 126.551L106.689 126.925C106.689 126.925 105.941 126.645 103.231 126.177L103.325 125.804C103.325 125.804 104.353 125.99 104.727 125.99L105.194 123.467C105.194 123.561 105.381 123.654 105.661 123.654Z" fill="#BEBEBE"/>
<path d="M106.689 127.018C106.596 127.018 105.848 126.738 103.231 126.271L103.325 125.804H103.418C103.418 125.804 104.353 125.99 104.727 125.99L105.194 123.467H105.287C105.287 123.467 105.474 123.561 105.848 123.561L105.381 126.084C105.568 126.084 106.035 126.271 106.876 126.458L106.689 127.018ZM103.231 126.271C105.474 126.645 106.409 126.925 106.596 126.925L106.689 126.645C105.755 126.458 105.194 126.271 105.194 126.271L105.661 123.748C105.474 123.748 105.381 123.654 105.194 123.654L104.727 126.177H104.633C104.353 126.084 103.512 125.99 103.325 125.99L103.231 126.271Z" fill="#757575"/>
<path d="M99.4 128.327C105.941 128.327 110.52 130.663 110.52 130.663L110.427 131.037C110.427 131.037 106.035 128.887 99.4 128.887C92.765 128.887 88.4663 131.037 88.4663 131.037L88.3729 130.663C88.2794 130.663 92.8585 128.327 99.4 128.327Z" fill="#BEBEBE"/>
<path d="M110.52 131.13C110.427 131.037 106.035 128.887 99.4934 128.887C92.9519 128.887 88.5598 130.943 88.5598 131.037H88.4663L88.2794 130.569H88.3729C89.2139 130.196 93.5126 128.327 99.4934 128.327C105.941 128.327 110.614 130.569 110.707 130.663L110.52 131.13ZM99.4 128.887C105.661 128.887 109.96 130.85 110.427 131.037L110.52 130.756C110.147 130.476 105.568 128.514 99.4 128.514C93.5126 128.514 89.2139 130.383 88.3729 130.756L88.4663 131.037C88.9336 130.756 93.1388 128.887 99.4 128.887Z" fill="#757575"/>
<path d="M90.5747 126.884L90.5432 126.972L91.6869 127.381L91.7184 127.293L90.5747 126.884Z" fill="#757575"/>
<path d="M90.6667 127.272L90.6447 127.363L91.7349 127.626L91.7568 127.535L90.6667 127.272Z" fill="#757575"/>
<path d="M95.5836 125.753L95.5284 125.828L96.2826 126.38L96.3378 126.305L95.5836 125.753Z" fill="#757575"/>
<path d="M95.6292 126.258L95.5764 126.335L96.348 126.862L96.4007 126.785L95.6292 126.258Z" fill="#757575"/>
<path d="M108.408 126.898L107.267 127.314L107.299 127.402L108.44 126.986L108.408 126.898Z" fill="#757575"/>
<path d="M108.261 127.351L107.172 127.615L107.194 127.705L108.283 127.442L108.261 127.351Z" fill="#757575"/>
<path d="M103.201 125.855L102.448 126.407L102.503 126.482L103.257 125.93L103.201 125.855Z" fill="#757575"/>
<path d="M109.212 135.709C109.212 136.177 107.53 136.644 99.3065 136.644C91.1764 136.644 89.4008 136.083 89.4008 135.709C89.4008 135.335 92.2043 133.934 99.4 133.934C106.596 133.934 109.212 135.242 109.212 135.709Z" fill="#757575"/>
<path d="M99.3065 136.737C92.5781 136.737 89.4008 136.457 89.4008 135.709C89.4008 135.149 92.3912 133.84 99.4 133.84C106.409 133.84 109.306 135.149 109.306 135.709C109.306 135.99 108.745 136.27 107.437 136.363C105.848 136.644 103.045 136.737 99.3065 136.737ZM99.4934 133.934C95.5685 133.934 93.1388 134.307 91.8305 134.681C90.1484 135.055 89.4943 135.522 89.4943 135.709C89.4943 136.176 91.1764 136.644 99.4 136.644C107.624 136.644 109.306 136.083 109.306 135.709C109.306 135.522 108.745 135.055 107.156 134.681C105.755 134.401 103.325 133.934 99.4934 133.934Z" fill="#757575"/>
<path d="M108.091 135.522C108.091 135.803 106.689 136.27 99.3066 136.27C92.3913 136.27 90.6157 135.896 90.6157 135.522C90.6157 135.148 92.6716 134.401 99.3066 134.401C106.315 134.494 108.091 135.242 108.091 135.522Z" fill="#BEBEBE"/>
<path d="M99.3066 136.363C95.3817 136.363 90.6157 136.176 90.6157 135.522C90.6157 135.055 93.0454 134.401 99.3066 134.401C106.222 134.401 108.091 135.148 108.091 135.522C108.091 135.99 105.194 136.363 99.3066 136.363ZM99.3066 134.494C92.8585 134.494 90.7092 135.242 90.7092 135.522C90.7092 135.709 91.2699 136.27 99.3066 136.27C106.969 136.27 108.091 135.803 108.091 135.522C107.997 135.242 106.502 134.494 99.3066 134.494Z" fill="#757575"/>
<path d="M89.7159 130.406L89.6262 130.432L90.0997 132.047L90.1894 132.02L89.7159 130.406Z" fill="#757575"/>
<path d="M90.0528 130.404L89.9623 130.427L90.359 131.965L90.4495 131.942L90.0528 130.404Z" fill="#757575"/>
<path d="M94.203 129.271L94.1107 129.286L94.395 131.039L94.4873 131.024L94.203 129.271Z" fill="#757575"/>
<path d="M99.2131 128.887H99.1196V130.196H99.2131V128.887Z" fill="#757575"/>
<path d="M104.241 129.296L104.007 130.678L104.099 130.694L104.333 129.312L104.241 129.296Z" fill="#757575"/>
<path d="M104.677 129.38L104.399 130.754L104.491 130.772L104.769 129.398L104.677 129.38Z" fill="#757575"/>
<path d="M108.87 130.44L108.388 131.855L108.476 131.885L108.958 130.47L108.87 130.44Z" fill="#757575"/>
<path d="M89.6812 130.476L90.1485 132.065L90.5223 131.971L90.055 130.383L89.6812 130.476Z" fill="#A2A2A2"/>
<path d="M90.1485 132.158L89.6812 130.476L90.1485 130.383L90.6157 132.065L90.1485 132.158ZM89.7747 130.476L90.1485 131.971L90.3354 131.878L89.8681 130.289L89.7747 130.476Z" fill="#757575"/>
<path d="M87.9057 125.43L88.8402 127.672L87.5319 128.233L87.6253 128.607L90.6157 127.392L90.5223 126.925L89.1205 127.486L88.2795 125.243L87.9057 125.43Z" fill="#BEBEBE"/>
<path d="M87.5319 128.7L87.345 128.233L88.7467 127.672L87.8122 125.43L88.2795 125.243L89.214 127.579L90.6157 127.018L90.7092 127.486L87.5319 128.7ZM87.5319 128.233L87.6253 128.607L90.6157 127.299L90.5223 127.018L89.1205 127.579L88.2795 125.243L87.9991 125.43L88.9336 127.672L87.5319 128.233Z" fill="#757575"/>
<path d="M90.6157 127.392L91.7371 127.673L91.6436 127.392L90.5222 126.925L90.6157 127.392Z" fill="#BEBEBE"/>
<path d="M91.8305 127.766L90.6157 127.486L90.5222 126.925L91.7371 127.392L91.8305 127.766ZM90.7091 127.392L91.6436 127.673L91.5502 127.486L90.5222 127.112L90.7091 127.392Z" fill="#757575"/>
<path d="M110.988 125.43L110.147 127.672L111.455 128.233L111.362 128.607L108.278 127.392L108.371 126.925L109.773 127.486L110.614 125.243L110.988 125.43Z" fill="#BEBEBE"/>
<path d="M111.362 128.7L108.184 127.392L108.371 126.925L109.773 127.486L110.614 125.149L111.081 125.336L110.147 127.579L111.455 128.14L111.362 128.7ZM108.371 127.392L111.362 128.607L111.455 128.233L110.053 127.672L110.988 125.43L110.707 125.243L109.866 127.579L108.465 127.018L108.371 127.392Z" fill="#757575"/>
<path d="M108.278 127.392L107.156 127.673L107.25 127.299L108.371 126.925L108.278 127.392Z" fill="#757575"/>
<path d="M107.156 127.766L107.25 127.392L108.465 126.925L108.278 127.486L107.156 127.766ZM107.343 127.392L107.25 127.579L108.184 127.299L108.278 126.925L107.343 127.392Z" fill="#757575"/>
<path d="M95.5685 125.897L95.662 126.271L96.4096 126.738L96.3161 126.458L95.5685 125.897Z" fill="#757575"/>
<path d="M96.4096 126.925L95.5685 126.364L95.4751 125.803L96.3161 126.364L96.4096 126.925ZM95.7554 126.271L96.4096 126.738V126.458L95.7554 125.99V126.271Z" fill="#757575"/>
<path d="M103.325 125.897L103.231 126.271L102.577 126.738V126.364L103.325 125.897Z" fill="#A2A2A2"/>
<path d="M102.484 126.831V126.364L103.325 125.803L103.231 126.364L102.484 126.831ZM102.577 126.458V126.738L103.231 126.364V125.99L102.577 126.458Z" fill="#757575"/>
<path d="M94.1668 129.355L94.4472 130.85L94.7275 130.476L94.6341 129.261L94.1668 129.355Z" fill="#A2A2A2"/>
<path d="M94.4472 131.037L94.1668 129.355L94.7275 129.261L94.9144 130.569L94.4472 131.037ZM94.2603 129.355L94.5406 130.85L94.7275 130.476L94.5406 129.168L94.2603 129.355Z" fill="#757575"/>
<path d="M99.1196 128.887V130.102H99.5869V128.887H99.1196Z" fill="#A2A2A2"/>
<path d="M99.6803 130.102H99.1196V128.794H99.6803V130.102ZM99.1196 130.009H99.5869V128.981H99.1196V130.009Z" fill="#757575"/>
<path d="M104.259 129.261L103.979 130.569L104.446 130.663L104.727 129.355L104.259 129.261Z" fill="#A2A2A2"/>
<path d="M104.54 130.756L103.979 130.663L104.166 129.261L104.727 129.355L104.54 130.756ZM104.072 130.569L104.446 130.663L104.727 129.355L104.259 129.261L104.072 130.569Z" fill="#757575"/>
<path d="M108.745 131.878L109.306 130.57L108.838 130.476L108.371 131.691L108.745 131.878Z" fill="#A2A2A2"/>
<path d="M108.838 131.878L108.278 131.691L108.838 130.383L109.306 130.476L108.838 131.878ZM108.371 131.691L108.745 131.784L109.212 130.569L108.932 130.476L108.371 131.691Z" fill="#757575"/>
<path d="M88.2795 134.307C88.2795 134.307 87.9057 134.121 87.8122 133.373C87.8122 133.373 88.5598 132.438 88.4664 132.065C88.4664 132.065 90.055 133.84 88.2795 134.307Z" fill="white"/>
<path d="M88.2795 134.307C88.2795 134.307 87.8122 134.121 87.8122 133.279C87.9991 133.093 88.5598 132.345 88.4664 132.065V131.971L88.5598 132.065C88.5598 132.065 89.3074 132.906 89.214 133.56C89.1205 133.934 88.8402 134.214 88.2795 134.307ZM87.9057 133.373C87.9057 134.027 88.2795 134.307 88.2795 134.307C88.7467 134.214 88.9336 134.027 89.1205 133.747C89.3074 133.186 88.7467 132.438 88.5598 132.252C88.4664 132.532 87.9057 133.186 87.9057 133.373Z" fill="#757575"/>
<path d="M90.055 133.279C91.1764 132.345 90.6157 131.317 90.6157 131.317C90.6157 131.317 90.055 131.878 89.5878 131.971C89.5878 131.971 88.8402 132.158 88.8402 132.906" fill="white"/>
<path d="M90.055 133.279C90.9895 132.345 90.6157 131.597 90.6157 131.317C90.4288 131.504 90.055 131.878 89.5878 131.971C89.5878 131.971 88.9336 132.158 88.8402 132.812H88.7467C88.8402 132.065 89.5878 131.878 89.5878 131.878C90.055 131.784 90.6157 131.224 90.6157 131.224V131.317C90.6157 131.224 91.2699 132.251 90.055 133.279Z" fill="#757575"/>
<path d="M90.3354 133.279C90.3354 133.279 91.083 132.719 91.6437 133.279C91.6437 133.279 92.0175 133.466 92.952 133.466C92.952 133.466 92.5782 134.775 91.4568 134.775C91.4568 134.775 90.8961 134.962 90.1485 134.775" fill="white"/>
<path d="M90.8961 134.868C90.7092 134.868 90.4288 134.868 90.1485 134.775V134.681C90.9895 134.868 91.4568 134.681 91.4568 134.681C92.3913 134.681 92.7651 133.747 92.952 133.466C92.0175 133.466 91.6437 133.279 91.6437 133.279C91.083 132.719 90.3354 133.279 90.3354 133.279L90.2419 133.186C90.2419 133.186 91.083 132.625 91.6437 133.186C91.6437 133.186 92.0175 133.373 92.952 133.373H93.0454V133.466C93.0454 133.466 92.6716 134.775 91.4568 134.775C91.4568 134.775 91.2699 134.868 90.8961 134.868Z" fill="#757575"/>
<path d="M90.4288 133.934C90.4288 133.934 90.3354 134.494 89.8681 134.868C89.8681 134.868 89.3074 135.242 89.4009 135.709C89.4009 135.709 89.214 135.896 88.8402 135.709C88.8402 135.709 88.4664 135.335 88.5598 134.868C88.5598 134.868 87.9991 134.588 88.186 134.307C88.186 134.307 88.3729 134.027 89.0271 134.12C89.0271 134.12 89.9616 134.12 90.4288 133.934Z" fill="white"/>
<path d="M89.214 135.803C89.1205 135.803 89.0271 135.709 88.9336 135.616C88.9336 135.616 88.5598 135.242 88.6533 134.775C88.5598 134.681 88.2795 134.588 88.2795 134.401C88.2795 134.307 88.2795 134.214 88.3729 134.214C88.3729 134.214 88.6533 133.934 89.214 134.027C89.4009 134.027 90.1485 134.027 90.4288 133.84H90.5223V133.934C90.5223 133.934 90.4288 134.494 89.9616 134.868C89.9616 134.868 89.4009 135.242 89.4943 135.616C89.4009 135.616 89.4009 135.709 89.214 135.803ZM88.9336 134.12C88.4664 134.12 88.3729 134.307 88.3729 134.307C88.2795 134.401 88.2795 134.401 88.2795 134.494C88.2795 134.681 88.5598 134.775 88.6533 134.775C88.5598 135.148 88.9336 135.522 88.9336 135.522C89.1205 135.616 89.1205 135.616 89.214 135.616C89.3074 135.616 89.3074 135.522 89.4009 135.522C89.3074 135.148 89.8681 134.681 89.8681 134.681C90.2419 134.494 90.3354 134.027 90.4288 133.84C90.055 134.027 89.3074 134.027 89.1205 134.027C89.0271 134.12 89.0271 134.12 88.9336 134.12Z" fill="#757575"/>
<path d="M95.7554 131.971C95.7554 131.971 97.4375 131.037 98.0917 131.037C98.0917 131.037 97.531 130.476 97.2506 130.476L95.7554 131.971Z" fill="white"/>
<path d="M95.5685 132.158L97.2506 130.476C97.6244 130.476 98.0917 131.037 98.0917 131.037L98.1851 131.13H98.0917C97.531 131.037 95.8489 132.065 95.8489 132.065L95.5685 132.158ZM97.2506 130.476L95.9423 131.784C96.4096 131.597 97.4375 131.037 97.9982 130.943C97.8113 130.85 97.531 130.476 97.2506 130.476Z" fill="#757575"/>
<path d="M91.4568 131.597C91.4568 131.597 91.6437 130.756 92.3913 130.756C92.3913 130.756 93.3258 130.569 93.6996 130.196C93.6996 130.196 93.9799 131.504 92.7651 132.251C92.7651 132.251 92.5782 132.438 92.2044 132.812" fill="white"/>
<path d="M92.3913 132.719C92.5782 132.438 92.8585 132.158 92.8585 132.158C93.793 131.597 93.793 130.569 93.793 130.289C93.4192 130.663 92.5782 130.85 92.4847 130.85C91.8306 130.85 91.5502 131.597 91.5502 131.691H91.4568C91.4568 131.691 91.6437 130.85 92.3913 130.85C92.3913 130.85 93.3258 130.663 93.6061 130.289L93.6996 130.196V130.289C93.6996 130.289 93.8865 131.597 92.7651 132.345C92.7651 132.251 92.5782 132.532 92.3913 132.719Z" fill="#757575"/>
<path d="M93.1389 132.625C93.1389 132.625 93.6996 132.251 94.821 132.812C94.821 132.812 95.3817 133.373 96.5031 133.373C96.5031 133.373 95.9424 134.214 95.3817 134.307C95.3817 134.307 93.1389 134.681 92.8585 133.934" fill="white"/>
<path d="M94.2603 134.307C93.6996 134.307 92.952 134.214 92.8585 133.747H92.952C93.2323 134.494 95.3817 134.12 95.4751 134.12C95.9424 134.027 96.4096 133.466 96.5031 133.279C95.5686 133.279 94.9144 132.812 94.9144 132.719C93.8865 132.158 93.2323 132.532 93.2323 132.532L93.1389 132.438C93.1389 132.438 93.793 132.065 94.9144 132.625C94.9144 132.625 95.4751 133.186 96.5965 133.186H96.69V133.279C96.69 133.279 96.1293 134.12 95.5686 134.214C95.3817 134.214 94.9144 134.307 94.2603 134.307Z" fill="#757575"/>
<path d="M94.5406 130.85C94.5406 130.85 94.9144 130.196 95.9424 130.196C95.9424 130.196 96.69 130.383 97.2507 129.915C97.2507 129.915 97.2507 131.224 96.5031 131.597C96.5031 131.597 95.1948 132.345 94.7275 132.812" fill="white"/>
<path d="M94.7275 132.625C95.1948 132.065 96.4096 131.41 96.4096 131.41C96.9703 131.13 97.0638 130.102 97.1572 129.822C96.5965 130.196 95.8489 130.009 95.8489 130.009C94.9144 130.009 94.5406 130.663 94.5406 130.663H94.4472C94.4472 130.663 94.821 130.009 95.8489 129.915C95.8489 129.915 96.5965 130.102 97.1572 129.635H97.2507V129.728C97.2507 129.822 97.2507 131.037 96.5031 131.41C96.5031 131.597 95.2882 132.251 94.7275 132.625Z" fill="#757575"/>
<path d="M96.3162 132.252C97.1572 131.878 97.6245 131.878 97.6245 131.878C98.1852 132.345 99.4935 132.065 99.4935 132.065C101.176 131.691 101.736 130.009 101.736 130.009C101.362 130.196 99.2131 130.009 99.2131 130.009C98.4655 130.009 97.9048 130.663 97.9048 130.663" fill="white"/>
<path d="M96.3162 132.252C97.0638 131.878 97.6245 131.878 97.6245 131.878C98.1852 132.345 99.4935 132.065 99.4935 132.065C100.895 131.691 101.549 130.476 101.643 130.196C101.082 130.383 99.2131 130.196 99.2131 130.196C98.4655 130.196 97.9048 130.85 97.9048 130.85L97.8114 130.756C97.8114 130.756 98.3721 130.009 99.1197 130.009C99.8673 130.102 101.362 130.196 101.643 130.009L101.736 129.915V130.009C101.736 130.009 101.176 131.691 99.4935 132.065C99.4 132.065 98.1852 132.345 97.531 131.878C97.531 131.971 97.0638 131.971 96.3162 132.252Z" fill="#757575"/>
<path d="M96.5031 132.251C97.2507 131.971 98.3721 132.345 98.3721 132.345C99.4 132.906 100.335 133.279 100.335 133.279C100.335 133.279 99.6804 134.214 98.8393 134.214C98.8393 134.214 96.8769 134.401 96.3162 133.84" fill="white"/>
<path d="M98.0917 134.12C97.531 134.12 96.5965 134.027 96.2227 133.747L96.3162 133.653C96.8769 134.214 98.8393 134.027 98.8393 134.027C99.4935 134.027 100.148 133.373 100.335 133.186C100.148 133.093 99.3066 132.812 98.3721 132.345C98.3721 132.345 97.3441 131.971 96.5965 132.251C97.3441 131.971 98.3721 132.345 98.4655 132.345C99.4935 132.906 100.428 133.279 100.428 133.279H100.521C100.521 133.279 99.8673 134.214 98.9328 134.214C98.7459 134.027 98.4655 134.12 98.0917 134.12Z" fill="#757575"/>
<path d="M101.362 131.504C101.362 131.504 102.671 130.196 104.633 130.756C104.633 130.756 105.194 130.943 105.941 130.85C105.941 130.85 105.848 132.438 103.979 132.625" fill="white"/>
<path d="M103.979 132.625C105.661 132.345 105.848 131.13 105.941 130.85C105.287 131.037 104.633 130.756 104.633 130.756C102.764 130.102 101.362 131.504 101.362 131.504V131.41C101.362 131.41 102.671 130.102 104.727 130.663C104.727 130.663 105.287 130.85 106.035 130.756H106.128V130.85C106.035 130.85 105.848 132.438 103.979 132.625Z" fill="#757575"/>
<path d="M103.979 132.625C103.979 132.625 105.941 132.251 106.783 133.186C106.783 133.186 107.624 133.934 108.278 134.12C108.278 134.12 108.091 134.868 106.783 134.681C106.783 134.681 104.072 134.214 103.979 133.747" fill="white"/>
<path d="M107.156 134.681C106.969 134.681 106.876 134.681 106.689 134.681C106.596 134.681 103.886 134.214 103.886 133.653H103.979C104.072 134.12 106.035 134.494 106.783 134.588C107.904 134.775 108.091 134.214 108.184 134.027C107.624 133.84 106.783 133.186 106.783 133.092C106.035 132.158 104.072 132.532 104.072 132.532V132.438C104.166 132.438 106.128 132.065 106.876 132.999C106.876 132.999 107.717 133.747 108.278 133.84H108.371V133.934C108.278 134.12 108.091 134.681 107.156 134.681Z" fill="#757575"/>
<path d="M100.615 131.878C100.615 131.878 102.017 131.504 103.045 132.625C103.045 132.625 103.886 133.373 104.166 133.279C104.166 133.279 103.418 134.12 102.484 133.934C102.484 133.934 100.428 134.12 100.054 133.373" fill="white"/>
<path d="M101.923 134.121C101.269 134.121 100.241 134.027 99.9607 133.466H100.054C100.521 134.307 102.484 134.027 102.484 134.027C103.138 134.121 103.792 133.56 104.072 133.466C103.699 133.373 103.045 132.812 103.045 132.812C102.11 131.691 100.615 132.065 100.615 132.065V131.878C100.615 131.878 102.017 131.504 103.045 132.719C103.231 132.906 103.886 133.466 104.166 133.373H104.259L104.166 133.466C104.166 133.466 103.325 134.307 102.484 134.121C102.484 134.121 102.297 134.121 101.923 134.121Z" fill="#757575"/>
<path d="M106.783 133.186C107.437 133.747 108.184 132.999 108.184 132.999L109.679 131.971C109.306 131.971 108.091 131.597 108.091 131.597C107.25 131.223 105.381 132.158 105.381 132.158" fill="white"/>
<path d="M107.343 133.373C107.156 133.373 106.969 133.279 106.783 133.186L106.876 133.092C107.437 133.56 108.184 132.906 108.184 132.906C108.278 132.812 108.745 132.532 109.586 131.878C109.119 131.784 108.184 131.504 108.091 131.504C107.25 131.13 105.381 132.065 105.381 132.065V131.971C105.474 131.971 107.25 131.037 108.184 131.41C108.184 131.41 109.399 131.878 109.773 131.784H109.96L109.773 131.971C109.212 132.345 108.371 132.999 108.278 132.999C108.091 133.092 107.717 133.373 107.343 133.373Z" fill="#757575"/>
<path d="M107.997 133.466C107.997 133.466 108.558 132.999 109.679 134.027C109.679 134.027 109.96 134.961 110.24 134.961C110.24 134.961 109.96 135.522 109.306 135.429C109.306 135.429 107.81 134.868 107.437 134.588C107.437 134.588 108.184 134.494 108.371 134.027C108.371 134.027 107.997 133.84 107.81 133.84L107.997 133.466Z" fill="white"/>
<path d="M109.399 135.522C109.306 135.522 109.306 135.522 109.212 135.522C109.119 135.522 107.717 134.962 107.343 134.681L107.25 134.588H107.343C107.343 134.588 107.997 134.494 108.184 134.027C108.091 134.027 107.81 133.84 107.624 133.84H107.53L107.904 133.466C107.904 133.466 108.558 132.999 109.586 134.027C109.679 134.214 109.866 134.868 110.147 134.962H110.24V135.055C110.24 134.962 109.866 135.522 109.399 135.522ZM107.437 134.588C107.904 134.868 109.212 135.335 109.212 135.335C109.773 135.429 110.053 135.055 110.147 134.962C109.96 134.775 109.679 134.12 109.586 134.027C108.652 133.093 107.997 133.466 107.997 133.466L107.717 133.653C107.904 133.747 108.278 133.84 108.278 133.84C108.091 134.494 107.717 134.588 107.437 134.588Z" fill="#757575"/>
<path d="M109.493 132.065C109.493 132.065 109.96 132.812 110.24 132.812C110.24 132.812 110.521 133.373 109.399 133.934C109.399 133.934 108.558 133.373 107.904 133.466V133.279" fill="white"/>
<path d="M109.493 134.027C109.493 134.027 108.652 133.466 107.997 133.56L107.904 133.279H107.997L108.091 133.466C108.652 133.279 109.399 133.84 109.493 133.934C110.053 133.653 110.24 133.373 110.334 133.186C110.334 132.999 110.334 132.999 110.334 132.999C109.96 132.999 109.586 132.345 109.493 132.251H109.586C109.586 132.251 109.96 132.999 110.334 132.906C110.334 132.906 110.427 133.093 110.334 133.186C110.24 133.373 110.147 133.653 109.493 134.027Z" fill="#757575"/>
<path d="M88.0926 133.373C88.186 133.56 87.9991 133.84 87.9057 133.84L88.0926 133.373Z" fill="white"/>
<path d="M87.9057 133.747C87.9991 133.653 87.9991 133.653 88.0926 133.56C88.186 133.466 88.186 133.373 88.186 133.279H88.2795C88.3729 133.466 88.2795 133.56 88.186 133.653C88.0926 133.747 87.9057 133.747 87.9057 133.747Z" fill="#757575"/>
<path d="M88.6533 134.868C88.8402 134.681 89.4009 134.681 89.8681 134.494L88.6533 134.868Z" fill="white"/>
<path d="M88.6533 134.868C88.7467 134.681 88.9336 134.681 89.214 134.681C89.4009 134.681 89.5878 134.588 89.7747 134.494V134.588C89.5878 134.681 89.3074 134.775 89.214 134.775C88.9336 134.775 88.7467 134.775 88.6533 134.868Z" fill="#757575"/>
<path d="M89.5878 135.148C89.5878 134.961 89.3074 134.961 89.3074 134.961C89.3074 134.961 89.5878 134.868 89.6812 135.055L89.5878 135.148Z" fill="white"/>
<path d="M89.4943 135.242C89.4943 135.055 89.3074 135.055 89.3074 135.055L89.1205 134.961H89.3074C89.4009 134.961 89.6812 134.868 89.7747 135.055L89.4943 135.242ZM89.4009 134.961C89.4943 134.961 89.4943 135.055 89.4009 134.961H89.5878C89.5878 134.961 89.4943 134.961 89.4009 134.961Z" fill="#757575"/>
<path d="M89.4009 135.242C89.4009 135.148 89.0271 135.148 89.0271 135.148C89.0271 135.148 89.4009 135.335 89.4009 135.522V135.242Z" fill="white"/>
<path d="M89.4009 135.616C89.3074 135.429 89.0271 135.242 88.9336 135.242V135.148H89.1205C89.214 135.148 89.5878 135.242 89.6812 135.335L89.4009 135.616ZM89.1205 135.242C89.214 135.335 89.3074 135.429 89.3074 135.429L89.4009 135.242C89.4009 135.242 89.3074 135.242 89.1205 135.242Z" fill="#757575"/>
<path d="M88.7467 134.12C88.7467 134.12 89.0271 133.466 89.4943 133.56C89.4943 133.56 90.055 133.653 89.7747 134.12C89.7747 134.12 89.0271 134.12 88.7467 134.12Z" fill="white"/>
<path d="M89.214 134.12C89.0271 134.12 88.8402 134.12 88.7467 134.027C88.7467 134.027 89.0271 133.279 89.4943 133.466C89.4943 133.466 89.6812 133.466 89.8681 133.653C89.9616 133.747 89.9616 133.84 89.8681 134.027C89.7747 134.12 89.4943 134.12 89.214 134.12ZM88.8402 134.027C89.0271 134.12 89.6812 134.027 89.7747 134.027C89.8681 133.84 89.8681 133.84 89.7747 133.747C89.6812 133.56 89.4943 133.56 89.4943 133.56C89.1205 133.373 88.9336 133.934 88.8402 134.027Z" fill="#757575"/>
<path d="M91.924 133.934C90.9895 133.747 90.4288 133.747 90.2419 134.027L91.924 133.934Z" fill="white"/>
<path d="M90.2419 134.027C90.4288 133.653 90.9895 133.747 91.924 133.934V134.027C91.083 133.747 90.5223 133.747 90.2419 134.027Z" fill="#757575"/>
<path d="M90.6157 133.747C90.6157 133.747 91.1764 134.307 91.6437 134.307C91.6437 134.307 91.083 134.121 91.083 133.747C91.1764 133.747 90.8026 133.747 90.6157 133.747Z" fill="white"/>
<path d="M91.5502 134.401C91.1764 134.401 90.6157 133.84 90.6157 133.84L90.5223 133.747H90.6157C90.7092 133.747 91.1764 133.747 91.1764 133.84C91.083 134.121 91.5502 134.307 91.5502 134.401H91.7371H91.5502C91.6437 134.401 91.6437 134.401 91.5502 134.401ZM90.7092 133.747C90.8961 133.934 91.1764 134.121 91.4568 134.214C91.2699 134.121 91.083 134.027 91.083 133.747C90.9895 133.84 90.8961 133.747 90.7092 133.747Z" fill="#757575"/>
<path d="M90.3354 133.84C90.3354 133.84 90.6157 134.494 90.9895 134.401C90.9895 134.401 90.2419 134.214 90.3354 134.214C90.3354 134.12 90.3354 133.934 90.3354 133.84Z" fill="white"/>
<path d="M90.9895 134.494C90.8961 134.494 90.8026 134.494 90.8026 134.401C90.3354 134.307 90.3354 134.214 90.3354 134.214C90.3354 134.12 90.3354 133.934 90.3354 133.84H90.4288C90.4288 133.84 90.6157 134.214 90.8026 134.401C90.8961 134.401 90.9895 134.494 90.9895 134.494H91.2699H90.9895ZM90.4288 134.214C90.4288 134.214 90.5223 134.307 90.6157 134.307C90.5223 134.214 90.4288 134.12 90.4288 134.027C90.4288 134.12 90.4288 134.214 90.4288 134.214Z" fill="#757575"/>
<path d="M91.4568 133.84C91.4568 133.84 91.7371 134.214 92.0175 134.12C92.0175 134.12 91.7371 133.934 91.7371 133.84H91.4568Z" fill="white"/>
<path d="M92.0175 134.214C91.7371 134.214 91.4568 133.934 91.4568 133.934L91.3633 133.84L91.8306 133.934C91.7371 134.027 92.0175 134.12 92.0175 134.214H92.2044H92.0175ZM91.5502 133.934C91.6437 134.027 91.7371 134.12 91.924 134.12C91.8306 134.027 91.7371 133.934 91.7371 133.934H91.5502Z" fill="#757575"/>
<path d="M90.8171 133.311L90.5481 133.571L90.613 133.638L90.8819 133.379L90.8171 133.311Z" fill="#757575"/>
<path d="M91.5156 133.376L91.2788 133.526L91.3288 133.605L91.5656 133.455L91.5156 133.376Z" fill="#757575"/>
<path d="M92.1854 133.515L91.9186 133.601L91.9473 133.69L92.2141 133.604L92.1854 133.515Z" fill="#757575"/>
<path d="M92.4704 133.722L92.1007 133.777L92.1145 133.869L92.4842 133.814L92.4704 133.722Z" fill="#757575"/>
<path d="M89.3074 133.279C89.3074 132.532 89.8681 132.906 90.5223 131.878L89.3074 133.279Z" fill="white"/>
<path d="M89.4009 133.279C89.3074 132.812 89.4943 132.719 89.6812 132.719C89.8681 132.532 90.2419 132.438 90.4288 131.971H90.5223C90.2419 132.532 89.9616 132.625 89.6812 132.812C89.4943 132.812 89.4009 132.906 89.4009 133.279Z" fill="#757575"/>
<path d="M89.3074 133.093C89.3074 133.093 89.5878 132.906 89.8681 132.906C89.8681 132.906 89.5878 132.719 89.4009 132.812L89.3074 133.093Z" fill="white"/>
<path d="M89.214 133.186L89.3074 132.906C89.4943 132.812 89.7747 132.999 89.8681 132.999L90.055 133.093H89.8681C89.5878 132.999 89.3074 133.186 89.214 133.186ZM89.4009 132.999C89.4943 133.093 89.5878 132.999 89.6812 132.999C89.5878 132.999 89.4009 132.999 89.4009 132.999Z" fill="#757575"/>
<path d="M89.6812 132.625C89.6812 132.625 90.055 132.532 90.2419 132.532C90.2419 132.532 90.2419 132.438 89.9616 132.345L89.6812 132.625Z" fill="white"/>
<path d="M89.4943 132.719L90.055 132.438C90.3354 132.438 90.3354 132.625 90.3354 132.625V132.719H90.2419C90.055 132.719 89.6812 132.812 89.6812 132.812H89.4943V132.719ZM90.055 132.438L89.8681 132.532C89.9616 132.532 90.055 132.438 90.1485 132.438C90.1485 132.532 90.1485 132.532 90.055 132.438Z" fill="#757575"/>
<path d="M89.5295 132.277L89.4376 132.44L89.519 132.486L89.6109 132.323L89.5295 132.277Z" fill="#757575"/>
<path d="M90.098 131.994L90.0213 132.164L90.1066 132.202L90.1832 132.032L90.098 131.994Z" fill="#757575"/>
<path d="M91.4568 132.625C92.0175 131.691 92.7651 132.065 93.5127 130.663L91.4568 132.625Z" fill="white"/>
<path d="M91.4568 132.625C91.6437 132.158 92.0175 132.065 92.2978 131.784C92.6716 131.597 93.1389 131.41 93.5127 130.569H93.6061C93.2323 131.41 92.7651 131.504 92.3913 131.784C92.0175 132.158 91.7371 132.251 91.4568 132.625Z" fill="#757575"/>
<path d="M91.7371 132.252C91.7371 132.252 92.1109 132.158 92.2978 132.345C92.2978 132.345 91.7371 132.532 91.4568 132.625L91.7371 132.252Z" fill="white"/>
<path d="M91.2699 132.719L91.7371 132.158C91.7371 132.158 92.1109 132.065 92.2978 132.251L92.3913 132.345H92.2978C92.2978 132.345 91.7371 132.532 91.4568 132.625L91.2699 132.719ZM91.7371 132.251L91.5502 132.438C91.7371 132.345 92.0175 132.251 92.1109 132.251C92.0175 132.251 91.8306 132.251 91.7371 132.251Z" fill="#757575"/>
<path d="M92.2978 131.878C92.2978 131.878 92.8585 131.784 92.8585 131.878L92.5782 131.691L92.2978 131.878Z" fill="white"/>
<path d="M93.1389 132.065L92.952 131.878C92.8585 131.878 92.4847 131.878 92.3913 131.878H92.2044L92.7651 131.691C92.7651 131.691 92.8585 131.691 93.1389 131.878V132.065ZM92.6716 131.784L92.4847 131.878C92.5782 131.878 92.6716 131.878 92.7651 131.878L92.6716 131.784Z" fill="#757575"/>
<path d="M92.3525 131.049L92.1925 131.489L92.2803 131.521L92.4403 131.081L92.3525 131.049Z" fill="#757575"/>
<path d="M92.9763 130.87L92.7948 131.196L92.8765 131.242L93.058 130.915L92.9763 130.87Z" fill="#757575"/>
<path d="M93.3157 131.385L93.1344 131.431L93.1571 131.522L93.3384 131.476L93.3157 131.385Z" fill="#757575"/>
<path d="M90.8961 132.625C90.8961 132.625 91.6437 132.345 91.8306 131.784C91.8306 131.784 91.7371 131.971 91.2699 131.878C91.2699 131.878 90.9895 131.691 90.8026 131.878C90.8026 131.878 90.6157 132.532 90.8961 132.625Z" fill="white"/>
<path d="M90.8961 132.625C90.7092 132.532 90.7092 132.438 90.7092 132.345C90.6157 132.158 90.7092 131.784 90.7092 131.784C90.8961 131.597 91.1764 131.784 91.2699 131.784C91.7371 131.971 91.8306 131.691 91.8306 131.691H91.924C91.6437 132.345 90.9895 132.625 90.8961 132.625ZM90.8026 131.878C90.8026 131.971 90.7092 132.438 90.9895 132.532C91.083 132.532 91.5502 132.345 91.7371 131.878C91.5502 131.971 91.4568 131.971 91.1764 131.878C91.2699 131.878 90.8961 131.784 90.8026 131.878Z" fill="#757575"/>
<path d="M93.6061 132.438C94.1668 131.317 96.2227 131.504 96.9703 130.289L93.6061 132.438Z" fill="white"/>
<path d="M93.6996 132.438C93.8865 131.878 94.6341 131.597 95.2882 131.317C95.9423 131.13 96.5965 130.756 96.9703 130.196L97.0637 130.289C96.6899 130.85 95.9423 131.224 95.2882 131.41C94.6341 131.691 93.9799 131.878 93.6996 132.438Z" fill="#757575"/>
<path d="M95.0604 130.721L94.7989 131.217L94.8815 131.261L95.1431 130.765L95.0604 130.721Z" fill="#757575"/>
<path d="M95.8568 130.417L95.6607 130.841L95.7455 130.88L95.9416 130.456L95.8568 130.417Z" fill="#757575"/>
<path d="M96.3645 130.36L96.2184 130.704L96.3044 130.741L96.4505 130.397L96.3645 130.36Z" fill="#757575"/>
<path d="M94.1668 131.878C94.1668 131.878 94.2603 132.065 94.9144 132.065C94.9144 132.065 94.3537 132.251 93.9799 132.158L94.1668 131.878Z" fill="white"/>
<path d="M94.2603 132.158C94.1668 132.158 94.0734 132.158 93.9799 132.158H93.8865L94.2603 131.878V131.971C94.2603 131.971 94.3537 132.158 94.9144 132.065V132.158C94.9144 131.971 94.5406 132.158 94.2603 132.158ZM93.9799 132.065C94.1668 132.065 94.2603 132.065 94.3537 132.065C94.1668 132.065 94.1668 131.971 94.1668 131.878L93.9799 132.065Z" fill="#757575"/>
<path d="M94.6341 131.597C94.6341 131.597 95.1013 131.784 95.4751 131.691C95.4751 131.691 94.9144 131.504 95.1013 131.504L94.6341 131.597Z" fill="white"/>
<path d="M95.1948 131.784C94.9144 131.784 94.6341 131.691 94.6341 131.691H94.5406L95.1013 131.504V131.597C95.1013 131.691 95.2882 131.784 95.4751 131.784L95.662 131.878H95.4751C95.3817 131.784 95.2882 131.784 95.1948 131.784ZM94.7275 131.597C94.9144 131.597 95.1013 131.691 95.2882 131.691C95.1013 131.597 95.1013 131.504 95.0079 131.504L94.7275 131.597Z" fill="#757575"/>
<path d="M95.5685 131.224C95.5685 131.224 95.9423 131.317 96.1292 131.224C96.1292 131.224 95.9423 131.13 95.9423 131.037L95.5685 131.224Z" fill="white"/>
<path d="M95.9424 131.317C95.7555 131.317 95.5686 131.317 95.5686 131.317H95.3817L95.9424 131.13V131.224C95.9424 131.317 96.1293 131.41 96.1293 131.41H96.3162H96.1293C96.1293 131.317 96.0358 131.317 95.9424 131.317ZM95.7555 131.224C95.8489 131.224 95.9424 131.224 96.0358 131.224L95.9424 131.13L95.7555 131.224Z" fill="#757575"/>
<path d="M109.866 134.401C110.073 134.401 110.24 134.234 110.24 134.027C110.24 133.821 110.073 133.653 109.866 133.653C109.66 133.653 109.493 133.821 109.493 134.027C109.493 134.234 109.66 134.401 109.866 134.401Z" fill="white"/>
<path d="M109.866 134.494C109.679 134.494 109.399 134.307 109.399 134.027C109.399 133.747 109.586 133.56 109.866 133.56C110.147 133.56 110.334 133.747 110.334 134.027C110.334 134.307 110.147 134.494 109.866 134.494ZM109.866 133.653C109.679 133.653 109.493 133.84 109.493 134.027C109.493 134.214 109.679 134.401 109.866 134.401C110.053 134.401 110.24 134.214 110.24 134.027C110.24 133.84 110.147 133.653 109.866 133.653Z" fill="#757575"/>
<path d="M96.5031 130.85C96.5031 130.85 96.69 130.85 96.7834 130.756C96.7834 130.756 96.7834 130.756 96.5965 130.663L96.5031 130.85Z" fill="white"/>
<path d="M96.5031 130.85L96.7834 130.663C96.9703 130.756 96.9703 130.85 96.9703 130.85C96.8769 130.943 96.69 130.943 96.69 130.943H96.5031V130.85ZM96.69 130.663C96.69 130.756 96.7834 130.756 96.69 130.663C96.7834 130.756 96.7834 130.663 96.69 130.663Z" fill="#757575"/>
<path d="M97.6245 131.878C98.5589 130.756 100.241 131.504 101.549 130.196L97.6245 131.878Z" fill="white"/>
<path d="M97.6245 131.878C97.9982 131.317 98.6524 131.13 99.3065 131.037C100.054 130.85 100.802 130.85 101.456 130.102L101.549 130.196C100.895 130.85 100.054 131.037 99.4 131.13C98.7458 131.224 97.9982 131.317 97.6245 131.878Z" fill="#757575"/>
<path d="M98.5603 130.425L98.3139 130.929L98.3979 130.97L98.6443 130.466L98.5603 130.425Z" fill="#757575"/>
<path d="M99.2852 130.173L99.0473 130.575L99.1277 130.622L99.3656 130.22L99.2852 130.173Z" fill="#757575"/>
<path d="M100.108 130.24L99.7732 130.69L99.8482 130.746L100.183 130.296L100.108 130.24Z" fill="#757575"/>
<path d="M100.628 130.381L100.492 130.626L100.574 130.671L100.71 130.426L100.628 130.381Z" fill="#757575"/>
<path d="M97.7179 131.691C97.7179 131.691 98.5589 131.784 98.6524 131.878C98.6524 131.878 98.7458 131.691 98.0917 131.691C98.0917 131.691 97.9048 131.504 97.9982 131.411L97.7179 131.691Z" fill="white"/>
<path d="M98.6524 132.065C98.5589 131.878 98.0917 131.784 97.7179 131.784H97.6245L97.9982 131.504C97.9982 131.504 97.9982 131.504 98.0917 131.504L98.372 131.317L98.0917 131.504C98.0917 131.597 98.1851 131.691 98.1851 131.691C98.4655 131.784 98.6524 131.784 98.7458 131.878C98.7458 131.971 98.7458 131.971 98.6524 132.065ZM97.8114 131.691C97.9048 131.691 97.9982 131.691 98.0917 131.784C98.0917 131.784 97.9982 131.691 97.9982 131.597L97.8114 131.691Z" fill="#757575"/>
<path d="M98.5589 131.224C98.5589 131.224 99.3065 131.41 99.5869 131.504C99.5869 131.504 99.0262 131.224 99.0262 131.13L98.5589 131.224Z" fill="white"/>
<path d="M99.4934 131.597C99.2131 131.41 98.5589 131.317 98.5589 131.317H98.372L99.1196 131.13V131.224C99.1196 131.317 99.4 131.504 99.4934 131.597C99.4934 131.504 99.4934 131.597 99.4934 131.597ZM98.7458 131.224C98.9327 131.224 99.0262 131.317 99.2131 131.41C99.1196 131.317 99.0262 131.224 99.0262 131.224H98.7458Z" fill="#757575"/>
<path d="M99.4934 131.13C99.4934 131.13 100.054 131.13 100.334 131.317C100.334 131.317 99.8672 131.13 100.054 131.13H99.4934Z" fill="white"/>
<path d="M100.334 131.224C100.148 131.224 99.4934 131.13 99.4934 131.13V131.037L100.054 130.943V131.037C100.054 131.037 100.241 131.13 100.334 131.224ZM99.8672 131.13C99.9607 131.13 100.054 131.13 100.054 131.13L99.9607 131.037L99.8672 131.13Z" fill="#757575"/>
<path d="M100.708 130.756H101.176C101.176 130.756 101.082 130.569 100.989 130.569L100.708 130.756Z" fill="white"/>
<path d="M101.176 130.85C101.176 130.85 100.989 130.85 100.708 130.85H100.521L100.989 130.663C101.176 130.569 101.176 130.756 101.176 130.85C101.176 130.756 101.176 130.756 101.176 130.85ZM100.895 130.756C100.989 130.756 101.082 130.756 101.082 130.756C101.082 130.663 100.989 130.663 100.989 130.663L100.895 130.756Z" fill="#757575"/>
<path d="M102.39 131.691C103.045 131.317 104.82 131.878 105.661 131.13L102.39 131.691Z" fill="white"/>
<path d="M102.39 131.784C102.577 131.597 103.138 131.597 103.605 131.597C104.353 131.597 105.194 131.691 105.661 131.13L105.755 131.224C105.287 131.784 104.446 131.691 103.699 131.691C103.138 131.597 102.671 131.597 102.39 131.784Z" fill="#757575"/>
<path d="M102.943 130.94L102.551 131.342L102.618 131.407L103.009 131.006L102.943 130.94Z" fill="#757575"/>
<path d="M103.905 130.726L103.306 131.316L103.371 131.382L103.971 130.792L103.905 130.726Z" fill="#757575"/>
<path d="M104.547 130.945L104.135 131.325L104.198 131.394L104.61 131.014L104.547 130.945Z" fill="#757575"/>
<path d="M102.484 131.691C102.484 131.691 103.045 132.158 103.418 132.251C103.418 132.251 102.764 131.691 102.858 131.597L102.484 131.691Z" fill="white"/>
<path d="M103.512 132.345L103.325 132.251C103.045 132.158 102.39 131.691 102.39 131.691L102.297 131.597L102.858 131.41L102.764 131.504C102.764 131.691 103.138 131.971 103.325 132.065L103.512 132.345ZM102.484 131.784C102.577 131.878 102.858 132.065 103.045 132.158C102.858 131.971 102.671 131.784 102.671 131.691L102.484 131.784Z" fill="#757575"/>
<path d="M103.418 131.597C103.418 131.597 103.699 132.065 104.446 131.971C104.446 131.971 103.886 131.784 103.886 131.597H103.418Z" fill="white"/>
<path d="M104.353 132.065C103.792 132.065 103.418 131.691 103.418 131.597H103.231H103.792V131.691C103.886 131.691 104.166 131.878 104.353 132.065H104.54H104.353ZM103.512 131.597C103.605 131.691 103.886 131.878 104.259 131.878C104.072 131.784 103.886 131.691 103.886 131.597H103.512Z" fill="#757575"/>
<path d="M104.727 131.597C104.727 131.597 105.194 131.597 105.287 131.691L105.1 131.504L104.727 131.597Z" fill="white"/>
<path d="M105.381 131.784L105.194 131.691C105.1 131.691 104.82 131.597 104.633 131.597H104.353L105.1 131.504L105.381 131.784ZM105.007 131.597C105.1 131.597 105.194 131.597 105.194 131.597L105.1 131.504L105.007 131.597Z" fill="#757575"/>
<path d="M106.035 132.625C106.783 132.158 108.465 132.532 109.586 131.878L106.035 132.625Z" fill="white"/>
<path d="M106.035 132.719C106.315 132.438 106.969 132.438 107.53 132.345C108.184 132.251 109.025 132.251 109.586 131.878V131.971C109.025 132.345 108.184 132.345 107.53 132.438C106.969 132.532 106.409 132.532 106.035 132.719Z" fill="#757575"/>
<path d="M107.388 131.726L106.895 131.992L106.939 132.074L107.433 131.808L107.388 131.726Z" fill="#757575"/>
<path d="M107.387 131.733L107.243 132.078L107.329 132.114L107.473 131.769L107.387 131.733Z" fill="#757575"/>
<path d="M107.92 131.753L107.525 132.004L107.575 132.082L107.97 131.832L107.92 131.753Z" fill="#757575"/>
<path d="M107.89 131.807L107.748 132.152L107.834 132.188L107.977 131.842L107.89 131.807Z" fill="#757575"/>
<path d="M108.537 131.932L108.268 132.012L108.295 132.102L108.564 132.022L108.537 131.932Z" fill="#757575"/>
<path d="M109.399 134.214C109.399 134.214 109.773 134.401 109.96 134.681L109.773 134.307L109.399 134.214Z" fill="white"/>
<path d="M109.866 134.775C109.679 134.588 109.306 134.307 109.306 134.307V134.214L109.679 134.401L109.866 134.775ZM109.586 134.401C109.679 134.401 109.679 134.494 109.773 134.588L109.586 134.401Z" fill="#757575"/>
<path d="M108.745 133.934C108.745 133.934 109.119 133.934 109.119 134.12C109.119 134.12 108.932 133.934 108.838 133.84L108.745 133.934Z" fill="white"/>
<path d="M109.399 134.401L109.212 134.12C109.119 134.027 109.025 134.027 108.932 134.027H108.838L108.932 133.84C109.119 133.934 109.212 134.027 109.212 134.027C109.212 134.027 109.212 134.027 109.212 134.12L109.399 134.401ZM108.838 133.84C108.932 133.84 108.932 133.84 109.025 133.84C109.025 133.84 108.932 133.84 108.838 133.84Z" fill="#757575"/>
<path d="M104.353 133.653C104.353 133.653 104.446 133.84 104.353 133.934C104.353 133.934 104.727 134.12 104.82 134.12C104.727 134.12 104.633 133.747 104.353 133.653Z" fill="white"/>
<path d="M104.727 134.12L104.166 133.934H104.259C104.259 133.934 104.259 133.84 104.259 133.747V133.653H104.353C104.633 133.747 104.82 134.12 104.727 134.12ZM104.353 133.934L104.633 134.027C104.54 133.934 104.446 133.84 104.353 133.747C104.446 133.747 104.446 133.84 104.353 133.934Z" fill="#757575"/>
<path d="M105.846 132.964L105.383 133.026L105.395 133.119L105.858 133.056L105.846 132.964Z" fill="#757575"/>
<path d="M106.113 132.961L105.651 133.033L105.666 133.125L106.127 133.053L106.113 132.961Z" fill="#757575"/>
<path d="M106.489 133.334L106.232 133.445L106.269 133.531L106.526 133.42L106.489 133.334Z" fill="#757575"/>
<path d="M106.652 133.449L106.492 133.545L106.54 133.625L106.7 133.529L106.652 133.449Z" fill="#757575"/>
<path d="M100.054 132.345C101.362 132.065 101.736 133.653 103.699 133.373L100.054 132.345Z" fill="white"/>
<path d="M103.325 133.466C102.484 133.466 102.017 133.093 101.549 132.812C101.082 132.532 100.615 132.251 100.054 132.345V132.251C100.615 132.065 101.082 132.438 101.549 132.719C102.11 133.093 102.671 133.466 103.699 133.279V133.373C103.605 133.466 103.512 133.466 103.325 133.466Z" fill="#757575"/>
<path d="M101.827 132.228L101.175 132.274L101.181 132.367L101.834 132.322L101.827 132.228Z" fill="#757575"/>
<path d="M102.481 132.503L101.829 132.567L101.839 132.66L102.49 132.596L102.481 132.503Z" fill="#757575"/>
<path d="M103.027 132.909L102.497 133.092L102.527 133.18L103.057 132.997L103.027 132.909Z" fill="#757575"/>
<path d="M100.268 132.339L100.188 132.386L100.901 133.593L100.981 133.546L100.268 132.339Z" fill="#757575"/>
<path d="M101.008 132.551L100.928 132.598L101.782 134.047L101.863 134L101.008 132.551Z" fill="#757575"/>
<path d="M101.881 133.064L101.803 133.116L102.277 133.812L102.354 133.759L101.881 133.064Z" fill="#757575"/>
<path d="M102.689 133.285L102.614 133.34L102.888 133.718L102.964 133.663L102.689 133.285Z" fill="#757575"/>
<path d="M96.5965 132.625C97.531 132.532 97.9048 133.56 99.7738 133.186L96.5965 132.625Z" fill="white"/>
<path d="M99.1196 133.373C98.4655 133.373 97.9982 133.186 97.6244 132.999C97.3441 132.812 97.0637 132.719 96.6899 132.812V132.719C97.1572 132.625 97.3441 132.812 97.7179 132.906C98.1851 133.093 98.6524 133.466 99.7738 133.186V133.279C99.4934 133.373 99.2131 133.373 99.1196 133.373Z" fill="#757575"/>
<path d="M97.9109 133.076L97.8462 133.144L98.7901 134.05L98.8548 133.982L97.9109 133.076Z" fill="#757575"/>
<path d="M96.8966 132.596L96.8255 132.657L97.9179 133.936L97.989 133.875L96.8966 132.596Z" fill="#757575"/>
<path d="M95.7555 132.625C96.5965 132.625 96.4096 133.466 97.2507 133.934L95.7555 132.625Z" fill="white"/>
<path d="M97.2507 134.027C96.8769 133.84 96.69 133.466 96.5031 133.186C96.3162 132.906 96.2227 132.625 95.7555 132.625V132.532C96.2227 132.532 96.4096 132.812 96.5965 133.093C96.7834 133.373 96.8769 133.747 97.2507 134.027Z" fill="#757575"/>
<path d="M97.6886 132.282L97.2443 132.427L97.2732 132.516L97.7175 132.371L97.6886 132.282Z" fill="#757575"/>
<path d="M98.6389 132.538L98.2009 132.7L98.2334 132.788L98.6714 132.625L98.6389 132.538Z" fill="#757575"/>
<path d="M99.2063 132.965L98.9343 133.033L98.957 133.124L99.229 133.056L99.2063 132.965Z" fill="#757575"/>
<path d="M98.763 133.359L98.7128 133.438L99.0281 133.638L99.0783 133.56L98.763 133.359Z" fill="#757575"/>
<path d="M92.8585 133.466C93.793 132.532 94.0734 133.653 95.8489 133.56L92.8585 133.466Z" fill="white"/>
<path d="M95.5686 133.653C94.9144 133.653 94.5406 133.466 94.1668 133.373C93.6996 133.186 93.4192 133.093 92.8585 133.56L92.7651 133.466C93.3258 132.906 93.6996 133.093 94.0734 133.279C94.4472 133.466 95.0079 133.653 95.7555 133.56V133.653C95.7555 133.56 95.7555 133.653 95.5686 133.653Z" fill="#757575"/>
<path d="M94.2282 133.274L94.1596 133.337L94.9843 134.229L95.0529 134.166L94.2282 133.274Z" fill="#757575"/>
<path d="M93.5 133.046L93.4307 133.109L94.3704 134.149L94.4397 134.086L93.5 133.046Z" fill="#757575"/>
<path d="M93.1519 133.302L93.083 133.366L93.9676 134.33L94.0364 134.266L93.1519 133.302Z" fill="#757575"/>
<path d="M95.3817 133.84L94.821 133.466H94.9144L95.3817 133.747V133.84Z" fill="#757575"/>
<path d="M93.8865 132.906V132.812L94.0734 132.719H94.1668L93.8865 132.906Z" fill="#757575"/>
<path d="M94.8782 132.935L94.5267 133.062L94.5584 133.15L94.91 133.023L94.8782 132.935Z" fill="#757575"/>
<path d="M95.3684 133.251L95.1979 133.328L95.2363 133.413L95.4067 133.336L95.3684 133.251Z" fill="#757575"/>
<path d="M88.6533 133.279C88.8597 133.279 89.0271 133.112 89.0271 132.906C89.0271 132.699 88.8597 132.532 88.6533 132.532C88.4468 132.532 88.2795 132.699 88.2795 132.906C88.2795 133.112 88.4468 133.279 88.6533 133.279Z" fill="white"/>
<path d="M88.6533 133.279C88.4664 133.279 88.186 133.093 88.186 132.812C88.186 132.625 88.3729 132.345 88.6533 132.345C88.8402 132.345 89.1205 132.532 89.1205 132.812C89.1205 133.093 88.9336 133.279 88.6533 133.279ZM88.6533 132.532C88.4664 132.532 88.2795 132.719 88.2795 132.906C88.2795 133.093 88.4664 133.279 88.6533 133.279C88.8402 133.279 89.0271 133.093 89.0271 132.906C89.0271 132.625 88.9336 132.532 88.6533 132.532Z" fill="#757575"/>
<path d="M91.083 132.532C91.341 132.532 91.5502 132.323 91.5502 132.065C91.5502 131.806 91.341 131.597 91.083 131.597C90.8249 131.597 90.6157 131.806 90.6157 132.065C90.6157 132.323 90.8249 132.532 91.083 132.532Z" fill="white"/>
<path d="M91.083 132.532C90.8026 132.532 90.5223 132.345 90.5223 131.971C90.5223 131.691 90.7092 131.41 91.083 131.41C91.4568 131.41 91.6437 131.597 91.6437 131.971C91.5502 132.251 91.2699 132.532 91.083 132.532ZM91.083 131.597C90.8961 131.597 90.6157 131.784 90.6157 132.065C90.6157 132.251 90.8026 132.532 91.083 132.532C91.2699 132.532 91.5502 132.345 91.5502 132.065C91.4568 131.878 91.2699 131.597 91.083 131.597Z" fill="#757575"/>
<path d="M92.2978 133.373C92.5043 133.373 92.6716 133.206 92.6716 132.999C92.6716 132.793 92.5043 132.625 92.2978 132.625C92.0914 132.625 91.924 132.793 91.924 132.999C91.924 133.206 92.0914 133.373 92.2978 133.373Z" fill="white"/>
<path d="M92.2978 133.466C92.1109 133.466 91.8306 133.279 91.8306 132.999C91.8306 132.812 92.0175 132.532 92.2978 132.532C92.5782 132.532 92.7651 132.719 92.7651 132.999C92.7651 133.279 92.4847 133.466 92.2978 133.466ZM92.2978 132.625C92.1109 132.625 91.924 132.812 91.924 132.999C91.924 133.186 92.1109 133.373 92.2978 133.373C92.4847 133.373 92.6716 133.186 92.6716 132.999C92.6716 132.812 92.4847 132.625 92.2978 132.625Z" fill="#757575"/>
<path d="M94.0734 131.597C94.3314 131.597 94.5406 131.388 94.5406 131.13C94.5406 130.872 94.3314 130.663 94.0734 130.663C93.8153 130.663 93.6061 130.872 93.6061 131.13C93.6061 131.388 93.8153 131.597 94.0734 131.597Z" fill="white"/>
<path d="M94.0734 131.597C93.8865 131.597 93.6061 131.41 93.6061 131.13C93.6061 130.85 93.793 130.663 94.0734 130.663C94.2603 130.663 94.5406 130.85 94.5406 131.13C94.5406 131.41 94.2603 131.597 94.0734 131.597ZM94.0734 130.756C93.8865 130.756 93.6996 130.943 93.6996 131.13C93.6996 131.317 93.8865 131.504 94.0734 131.504C94.2603 131.504 94.4472 131.317 94.4472 131.13C94.4472 130.943 94.2603 130.756 94.0734 130.756Z" fill="#757575"/>
<path d="M95.2882 133.093C95.5463 133.093 95.7555 132.883 95.7555 132.625C95.7555 132.367 95.5463 132.158 95.2882 132.158C95.0301 132.158 94.821 132.367 94.821 132.625C94.821 132.883 95.0301 133.093 95.2882 133.093Z" fill="white"/>
<path d="M95.2882 132.999C95.1013 132.999 94.821 132.812 94.821 132.532C94.821 132.251 95.0079 132.065 95.2882 132.065C95.4751 132.065 95.7555 132.251 95.7555 132.532C95.7555 132.812 95.4751 132.999 95.2882 132.999ZM95.2882 132.158C95.1013 132.158 94.9144 132.345 94.9144 132.532C94.9144 132.719 95.1013 132.906 95.2882 132.906C95.4751 132.906 95.662 132.719 95.662 132.532C95.662 132.345 95.4751 132.158 95.2882 132.158Z" fill="#757575"/>
<path d="M89.4009 134.307C89.6073 134.307 89.7747 134.14 89.7747 133.934C89.7747 133.727 89.6073 133.56 89.4009 133.56C89.1944 133.56 89.0271 133.727 89.0271 133.934C89.0271 134.14 89.1944 134.307 89.4009 134.307Z" fill="white"/>
<path d="M89.4009 134.401C89.214 134.401 88.9336 134.214 88.9336 133.934C88.9336 133.747 89.1205 133.466 89.4009 133.466C89.5878 133.466 89.8681 133.653 89.8681 133.934C89.8681 134.12 89.6812 134.401 89.4009 134.401ZM89.4009 133.56C89.214 133.56 89.0271 133.747 89.0271 133.934C89.0271 134.12 89.214 134.307 89.4009 134.307C89.5878 134.307 89.7747 134.12 89.7747 133.934C89.7747 133.747 89.6812 133.56 89.4009 133.56Z" fill="#757575"/>
<path d="M97.6244 131.224C97.8825 131.224 98.0917 131.014 98.0917 130.756C98.0917 130.498 97.8825 130.289 97.6244 130.289C97.3664 130.289 97.1572 130.498 97.1572 130.756C97.1572 131.014 97.3664 131.224 97.6244 131.224Z" fill="white"/>
<path d="M97.6244 131.224C97.4375 131.224 97.1572 131.037 97.1572 130.756C97.1572 130.476 97.3441 130.289 97.6244 130.289C97.8113 130.289 98.0917 130.476 98.0917 130.756C98.0917 131.037 97.8113 131.224 97.6244 131.224ZM97.6244 130.383C97.4375 130.383 97.2506 130.569 97.2506 130.756C97.2506 130.943 97.4375 131.13 97.6244 131.13C97.8113 131.13 97.9982 130.943 97.9982 130.756C97.9982 130.569 97.8113 130.383 97.6244 130.383Z" fill="#757575"/>
<path d="M99.3065 132.719C99.5646 132.719 99.7738 132.509 99.7738 132.251C99.7738 131.993 99.5646 131.784 99.3065 131.784C99.0485 131.784 98.8393 131.993 98.8393 132.251C98.8393 132.509 99.0485 132.719 99.3065 132.719Z" fill="white"/>
<path d="M99.3065 132.812C99.1196 132.812 98.8393 132.625 98.8393 132.345C98.8393 132.158 99.0262 131.878 99.3065 131.878C99.4934 131.878 99.7738 132.065 99.7738 132.345C99.7738 132.625 99.4934 132.812 99.3065 132.812ZM99.3065 131.878C99.1196 131.878 98.9327 132.065 98.9327 132.251C98.9327 132.438 99.1196 132.625 99.3065 132.625C99.4934 132.625 99.6803 132.438 99.6803 132.251C99.6803 132.158 99.4934 131.878 99.3065 131.878Z" fill="#757575"/>
<path d="M101.83 131.317C102.088 131.317 102.297 131.108 102.297 130.85C102.297 130.592 102.088 130.382 101.83 130.382C101.572 130.382 101.362 130.592 101.362 130.85C101.362 131.108 101.572 131.317 101.83 131.317Z" fill="white"/>
<path d="M101.83 131.317C101.643 131.317 101.362 131.13 101.362 130.85C101.362 130.663 101.643 130.476 101.83 130.476C102.017 130.476 102.297 130.663 102.297 130.85C102.297 131.13 102.11 131.317 101.83 131.317ZM101.83 130.476C101.643 130.476 101.456 130.663 101.456 130.85C101.456 131.037 101.643 131.224 101.83 131.224C102.017 131.224 102.204 131.037 102.204 130.85C102.204 130.663 102.017 130.476 101.83 130.476Z" fill="#757575"/>
<path d="M103.605 133.093C103.863 133.093 104.072 132.883 104.072 132.625C104.072 132.367 103.863 132.158 103.605 132.158C103.347 132.158 103.138 132.367 103.138 132.625C103.138 132.883 103.347 133.093 103.605 133.093Z" fill="white"/>
<path d="M103.605 133.093C103.418 133.093 103.138 132.906 103.138 132.625C103.138 132.438 103.325 132.158 103.605 132.158C103.886 132.158 104.072 132.345 104.072 132.625C103.979 132.906 103.886 133.093 103.605 133.093ZM103.605 132.252C103.418 132.252 103.231 132.438 103.231 132.625C103.231 132.812 103.418 132.999 103.605 132.999C103.792 132.999 103.979 132.812 103.979 132.625C103.979 132.438 103.792 132.252 103.605 132.252Z" fill="#757575"/>
<path d="M106.222 131.971C106.428 131.971 106.596 131.804 106.596 131.597C106.596 131.391 106.428 131.224 106.222 131.224C106.015 131.224 105.848 131.391 105.848 131.597C105.848 131.804 106.015 131.971 106.222 131.971Z" fill="white"/>
<path d="M106.222 132.065C106.035 132.065 105.755 131.878 105.755 131.597C105.755 131.41 105.941 131.13 106.222 131.13C106.502 131.13 106.689 131.317 106.689 131.597C106.596 131.878 106.409 132.065 106.222 132.065ZM106.222 131.317C106.035 131.317 105.848 131.504 105.848 131.691C105.848 131.878 106.035 132.065 106.222 132.065C106.409 132.065 106.596 131.878 106.596 131.691C106.596 131.504 106.409 131.317 106.222 131.317Z" fill="#757575"/>
<path d="M107.624 133.747C107.83 133.747 107.997 133.579 107.997 133.373C107.997 133.166 107.83 132.999 107.624 132.999C107.417 132.999 107.25 133.166 107.25 133.373C107.25 133.579 107.417 133.747 107.624 133.747Z" fill="white"/>
<path d="M107.624 133.747C107.437 133.747 107.156 133.56 107.156 133.279C107.156 132.999 107.343 132.812 107.624 132.812C107.904 132.812 108.091 132.999 108.091 133.279C107.997 133.653 107.81 133.747 107.624 133.747ZM107.624 132.999C107.437 132.999 107.25 133.186 107.25 133.373C107.25 133.56 107.437 133.747 107.624 133.747C107.81 133.747 107.997 133.56 107.997 133.373C107.997 133.186 107.717 132.999 107.624 132.999Z" fill="#757575"/>
<path d="M88.6533 133.093C88.8402 133.186 88.9336 133.093 89.0271 132.906L88.6533 133.093Z" fill="white"/>
<path d="M88.6533 133.186C88.6533 133.186 88.8402 133.093 88.8402 132.999L88.9336 133.093C88.9336 133.093 88.7467 133.186 88.6533 133.186Z" fill="#757575"/>
<path d="M89.3074 134.12C89.4943 134.214 89.5878 134.12 89.6812 133.934L89.3074 134.12Z" fill="white"/>
<path d="M89.4009 134.214C89.4009 134.214 89.5878 134.121 89.5878 134.027L89.6812 134.121C89.6812 134.121 89.4943 134.214 89.4009 134.214Z" fill="#757575"/>
<path d="M90.9895 132.251C91.1764 132.345 91.2699 132.251 91.3633 132.065L90.9895 132.251Z" fill="white"/>
<path d="M91.0829 132.345C91.0829 132.345 91.2698 132.252 91.2698 132.158L91.3633 132.252C91.2698 132.252 91.1764 132.345 91.0829 132.345Z" fill="#757575"/>
<path d="M92.1109 133.373C92.2978 133.466 92.3913 133.373 92.4847 133.186L92.1109 133.373Z" fill="white"/>
<path d="M92.2978 133.373C92.2978 133.373 92.4847 133.279 92.4847 133.186L92.5781 133.279C92.4847 133.279 92.3912 133.373 92.2978 133.373Z" fill="#757575"/>
<path d="M93.9799 131.41C94.1668 131.504 94.2603 131.41 94.3537 131.224L93.9799 131.41Z" fill="white"/>
<path d="M94.0734 131.504C94.0734 131.504 94.2603 131.41 94.2603 131.317L94.3537 131.41C94.2603 131.41 94.1668 131.504 94.0734 131.504Z" fill="#757575"/>
<path d="M95.1948 132.812C95.3817 132.906 95.4751 132.812 95.5686 132.625L95.1948 132.812Z" fill="white"/>
<path d="M95.2882 132.906C95.2882 132.906 95.4751 132.812 95.4751 132.719L95.5686 132.812C95.4751 132.812 95.3817 132.906 95.2882 132.906Z" fill="#757575"/>
<path d="M101.736 131.224C101.923 131.317 102.017 131.224 102.11 131.037L101.736 131.224Z" fill="white"/>
<path d="M101.83 131.224C101.83 131.224 102.017 131.13 102.017 131.037L102.11 131.13C102.11 131.224 101.923 131.224 101.83 131.224Z" fill="#757575"/>
<path d="M103.418 132.906C103.605 132.999 103.699 132.906 103.792 132.719L103.418 132.906Z" fill="white"/>
<path d="M103.605 132.906C103.605 132.906 103.792 132.812 103.792 132.719L103.886 132.812C103.792 132.812 103.605 132.906 103.605 132.906Z" fill="#757575"/>
<path d="M106.035 131.878C106.222 131.971 106.315 131.878 106.409 131.691L106.035 131.878Z" fill="white"/>
<path d="M106.222 131.971C106.222 131.971 106.409 131.878 106.409 131.784L106.502 131.878C106.409 131.878 106.222 131.971 106.222 131.971Z" fill="#757575"/>
<path d="M107.437 133.653C107.624 133.747 107.717 133.653 107.81 133.466L107.437 133.653Z" fill="white"/>
<path d="M107.53 133.653C107.53 133.653 107.717 133.56 107.717 133.466L107.81 133.56C107.717 133.653 107.624 133.653 107.53 133.653Z" fill="#757575"/>
<path d="M109.866 134.214C110.053 134.307 110.147 134.214 110.24 134.027L109.866 134.214Z" fill="white"/>
<path d="M109.866 134.307C109.866 134.307 110.053 134.214 110.053 134.12L110.147 134.214C110.147 134.214 109.96 134.307 109.866 134.307Z" fill="#757575"/>
<path d="M97.531 131.037C97.7179 131.13 97.8114 131.037 97.9048 130.85L97.531 131.037Z" fill="white"/>
<path d="M97.6245 131.13C97.6245 131.13 97.8114 131.037 97.8114 130.943L97.9048 131.037C97.8113 131.037 97.6245 131.13 97.6245 131.13Z" fill="#757575"/>
<path d="M99.1197 132.625C99.3066 132.719 99.4 132.625 99.4935 132.438L99.1197 132.625Z" fill="white"/>
<path d="M99.3065 132.625C99.3065 132.625 99.4934 132.532 99.4934 132.438L99.5869 132.532C99.4934 132.625 99.4 132.625 99.3065 132.625Z" fill="#757575"/>
<path d="M108.465 133.373C109.025 133.093 109.586 133.28 110.24 132.812L108.465 133.373Z" fill="white"/>
<path d="M108.465 133.373C108.652 133.186 108.932 133.186 109.119 133.186C109.493 133.093 109.773 133.093 110.24 132.719L110.334 132.812C109.96 133.186 109.586 133.186 109.212 133.279C108.932 133.279 108.745 133.373 108.465 133.373Z" fill="#757575"/>
<path d="M109.866 132.625L109.679 132.812C109.679 132.812 109.96 132.812 110.053 132.625H109.866Z" fill="white"/>
<path d="M109.679 132.906C109.773 132.812 109.866 132.719 109.866 132.625L110.053 132.719C109.96 132.906 109.679 132.906 109.679 132.906ZM109.866 132.625C109.866 132.812 109.96 132.719 109.866 132.625V132.625Z" fill="#757575"/>
<path d="M108.652 132.999C108.652 132.999 109.306 132.812 109.493 132.719C109.493 132.719 109.306 132.812 109.212 132.719C109.119 132.719 108.745 132.999 108.652 132.999Z" fill="white"/>
<path d="M108.652 133.093L108.465 132.999L108.652 133.093C108.652 132.999 108.652 132.999 108.652 133.093C108.838 132.999 108.932 132.906 109.025 132.812C109.212 132.719 109.212 132.625 109.212 132.719C109.306 132.719 109.399 132.719 109.399 132.719H109.493H109.399C109.399 132.906 108.838 132.999 108.652 133.093C108.745 133.093 108.652 133.093 108.652 133.093ZM109.119 132.719C109.119 132.719 109.025 132.812 108.932 132.812L108.838 132.906C109.025 132.812 109.025 132.812 109.212 132.719C109.212 132.812 109.212 132.812 109.119 132.719Z" fill="#757575"/>
<path d="M108.834 133.291L108.797 133.376L109.74 133.786L109.777 133.7L108.834 133.291Z" fill="#757575"/>
<path d="M109.65 133.105L109.63 133.197L109.904 133.256L109.924 133.165L109.65 133.105Z" fill="#757575"/>
<path d="M107.624 133.747C109.025 133.56 108.745 134.961 110.147 134.961L107.624 133.747Z" fill="white"/>
<path d="M110.147 134.962C109.493 134.962 109.212 134.681 108.838 134.307C108.558 134.027 108.278 133.747 107.53 133.747V133.653C108.278 133.56 108.558 133.84 108.838 134.214C109.119 134.494 109.399 134.775 110.053 134.775C110.147 134.868 110.147 134.962 110.147 134.962Z" fill="#757575"/>
<path d="M108.652 134.12C108.652 134.868 108.745 135.055 109.212 135.429L108.652 134.12Z" fill="white"/>
<path d="M109.119 135.429C108.558 134.962 108.558 134.868 108.558 134.12H108.652C108.745 134.775 108.745 134.962 109.119 135.429Z" fill="#757575"/>
<path d="M109.119 134.494C109.119 134.962 109.212 135.055 109.586 135.335L109.119 134.494Z" fill="white"/>
<path d="M109.586 135.429C109.212 135.148 109.025 135.055 109.025 134.588H109.119C109.119 134.962 109.212 135.055 109.586 135.429Z" fill="#757575"/>
<path d="M109.586 134.868C109.586 135.055 109.679 135.149 109.866 135.242L109.586 134.868Z" fill="white"/>
<path d="M109.866 135.242C109.679 135.148 109.586 135.055 109.586 134.775H109.679C109.586 135.055 109.679 135.148 109.866 135.242Z" fill="#757575"/>
<path d="M104.353 132.906C105.381 132.999 106.783 134.681 108.278 134.12L104.353 132.906Z" fill="white"/>
<path d="M107.624 134.214C106.969 134.214 106.315 133.84 105.661 133.466C105.194 133.186 104.727 132.906 104.353 132.906V132.812C104.727 132.812 105.287 133.092 105.661 133.373C106.409 133.84 107.343 134.307 108.184 133.934V134.027C107.997 134.214 107.717 134.214 107.624 134.214Z" fill="#757575"/>
<path d="M104.492 132.949L104.406 132.985L104.877 134.105L104.963 134.069L104.492 132.949Z" fill="#757575"/>
<path d="M104.965 133.101L104.878 133.136L105.371 134.348L105.457 134.313L104.965 133.101Z" fill="#757575"/>
<path d="M105.199 133.205L105.115 133.245L105.483 134.002L105.567 133.961L105.199 133.205Z" fill="#757575"/>
<path d="M105.684 133.388L105.599 133.427L106.074 134.443L106.158 134.404L105.684 133.388Z" fill="#757575"/>
<path d="M106.008 133.696L105.925 133.739L106.358 134.567L106.441 134.523L106.008 133.696Z" fill="#757575"/>
<path d="M106.583 133.932L106.502 133.979L106.88 134.625L106.96 134.578L106.583 133.932Z" fill="#757575"/>
<path d="M106.668 132.447L106.617 132.525L107.32 132.987L107.371 132.909L106.668 132.447Z" fill="#757575"/>
<path d="M107.204 132.399L107.18 132.49L107.993 132.705L108.016 132.615L107.204 132.399Z" fill="#757575"/>
<path d="M107.793 132.35L107.717 132.403L107.878 132.633L107.954 132.579L107.793 132.35Z" fill="#757575"/>
<path d="M108.161 132.352L108.154 132.445L108.9 132.494L108.907 132.401L108.161 132.352Z" fill="#757575"/>
<path d="M108.278 133.84C108.091 134.588 108.184 134.775 108.465 135.148L108.278 133.84Z" fill="white"/>
<path d="M108.371 135.148C108.184 134.775 108.184 134.588 108.184 133.84H108.278C108.184 134.588 108.278 134.681 108.371 135.148Z" fill="#757575"/>
<path d="M80.6166 143.466C80.6166 143.466 81.0838 143.559 84.448 141.783C84.448 141.783 82.9528 142.905 83.9808 147.297C83.9808 147.297 85.2891 153.091 83.7939 153.465C83.7939 153.465 81.1773 154.773 80.9904 154.773C80.9904 154.773 81.0838 149.353 80.6166 148.512C80.6166 148.512 79.4017 145.335 80.6166 143.466Z" fill="white"/>
<path d="M80.9904 154.773C80.9904 154.679 81.0838 149.353 80.6166 148.512C80.5231 148.418 80.2428 147.577 80.1493 146.549C79.9624 145.615 79.9624 144.4 80.6166 143.372C80.6166 143.372 81.1773 143.372 84.448 141.69C84.448 141.69 84.0742 141.97 83.8873 142.811C83.607 143.559 83.4201 144.961 84.0742 147.203C84.0742 147.203 84.448 148.605 84.5415 150.1C84.7284 152.156 84.448 153.184 83.7939 153.371C83.7939 153.465 81.1773 154.679 80.9904 154.773ZM80.71 148.512C81.0838 149.259 81.0838 154.306 81.0838 154.679C81.3642 154.493 83.7939 153.371 83.8873 153.371C85.3825 152.904 84.0742 147.203 84.0742 147.203C83.5135 144.961 83.607 143.559 83.8873 142.811C84.0742 142.251 84.2611 141.877 84.448 141.783C81.4576 143.372 80.8969 143.465 80.8035 143.465C80.2428 144.4 80.2428 145.708 80.3362 146.643C80.3362 147.577 80.6166 148.418 80.71 148.512Z" fill="#5F5F5F"/>
<path d="M80.71 143.465C80.71 143.465 80.0559 144.213 80.1493 146.175C80.1493 146.175 80.1493 147.203 80.71 148.886C80.71 148.886 80.8969 150.194 80.8969 150.941L81.1773 150.755C81.1773 150.755 81.3642 150.568 80.9904 148.792C80.9904 148.792 80.71 147.858 80.4297 146.269C80.4297 146.269 80.2428 144.587 80.9904 143.465H80.71Z" fill="#BEBEBE"/>
<path d="M84.3546 141.783C84.3546 141.783 83.0463 142.811 83.8873 146.736C83.8873 146.736 84.448 149.073 84.5415 151.409C84.5415 151.409 84.6349 153.371 83.607 153.465H82.8594C82.8594 153.465 85.3825 153.838 83.4201 146.736C83.4201 146.736 82.579 143.559 83.7939 142.064L84.3546 141.783Z" fill="#BEBEBE"/>
<path d="M78.7476 155.894L83.7939 153.371C83.7939 153.371 82.579 153.932 82.8594 151.969C82.8594 151.969 83.2332 150.381 81.9249 150.287C81.738 150.287 81.6445 150.287 81.5511 150.381C80.6166 150.942 78.4672 152.343 78.3738 152.437C78.2803 152.437 77.6262 153.558 78.7476 155.894Z" fill="#AAA4A4"/>
<path d="M81.1773 150.661C81.1773 150.661 81.9249 150.287 82.3921 150.848C82.3921 150.848 82.579 151.315 82.4856 151.969C82.4856 151.969 82.2052 153.278 83.1397 153.652L83.607 153.465C83.607 153.465 82.579 153.745 82.7659 151.969C82.7659 151.969 82.9528 150.755 82.2052 150.474C82.2052 150.474 81.5511 150.1 80.9904 150.661H81.1773Z" fill="#BEBEBE"/>
<path d="M81.4576 150.474C81.1773 151.969 81.2707 153.465 82.2052 154.306C83.1397 155.147 84.2611 158.231 83.8873 161.595C83.4201 164.959 83.7939 168.23 84.3546 168.884C84.9153 169.631 86.317 170.566 87.1581 170.566H91.8305C91.8305 170.566 92.9519 170.846 92.4847 171.594L92.0174 174.958H88.2794C88.2794 174.958 81.3642 174.865 80.2428 169.258C80.2428 169.258 79.6821 166.828 80.3362 159.445C80.3362 159.445 80.5231 158.885 78.6541 155.801C78.6541 155.801 77.3458 153.371 78.5607 152.25L81.4576 150.474Z" fill="white"/>
<path d="M92.0174 174.865H88.2794C88.2794 174.865 86.5974 174.865 84.7284 174.117C83.607 173.65 82.6725 173.182 82.0183 172.435C81.0838 171.5 80.5231 170.379 80.2428 169.164C80.2428 169.164 79.6821 166.734 80.3362 159.352C80.3362 159.352 80.4297 158.791 78.6541 155.707C78.6541 155.707 77.3458 153.278 78.5607 152.156L81.4576 150.381C81.1773 152.063 81.3642 153.465 82.2052 154.212C82.6725 154.679 83.1397 155.707 83.5135 156.922C83.7939 157.95 84.0742 159.632 83.7939 161.501C83.3266 164.959 83.7939 168.136 84.2611 168.79C84.8218 169.538 86.2236 170.472 87.0646 170.472H91.7371C91.7371 170.472 92.2978 170.659 92.4847 171.033C92.5781 171.22 92.5781 171.407 92.3912 171.594L92.0174 174.865ZM81.4576 150.474L78.6541 152.25C77.4393 153.278 78.7476 155.801 78.7476 155.801C80.4297 158.885 80.4297 159.445 80.4297 159.445C79.7755 166.734 80.2428 169.258 80.2428 169.258C80.8035 172.155 83.0463 173.556 84.7284 174.21C86.5974 174.958 88.2794 174.958 88.2794 174.958H92.0174L92.4847 171.594C92.5781 171.407 92.6716 171.22 92.5781 171.033C92.3912 170.659 91.8305 170.472 91.8305 170.472H87.1581C86.2236 170.472 84.8218 169.538 84.3546 168.79C83.7939 168.136 83.4201 164.865 83.8873 161.408C84.0742 159.539 83.7939 157.857 83.607 156.829C83.3266 155.614 82.7659 154.586 82.2987 154.212C81.3642 153.558 81.0838 152.063 81.4576 150.474Z" fill="#5F5F5F"/>
<path d="M92.4847 171.22C92.4847 171.22 92.2978 172.528 90.3354 171.594C90.3354 171.594 89.214 171.033 88.6533 171.874C88.6533 171.874 87.9991 176.079 88.0926 176.36C88.0926 176.36 90.7092 177.481 91.924 176.64C91.8306 176.734 92.6716 171.874 92.4847 171.22Z" fill="#AAA4A4"/>
<path d="M88.6533 172.155C88.6533 172.155 89.214 171.594 90.3354 172.061C90.3354 172.061 92.8585 172.902 92.5781 171.313C92.5781 171.313 92.3913 172.435 90.4288 171.687C90.4288 171.687 89.4009 171.127 88.7467 171.968L88.6533 172.155Z" fill="#BEBEBE"/>
<path d="M78.5607 152.25C78.5607 152.25 77.3458 152.997 78.5607 155.521C78.5607 155.521 78.7476 155.707 79.1214 156.455C79.5886 157.39 80.1493 158.417 80.4297 159.352C80.4297 159.352 80.0559 163.838 80.1493 166.921C80.1493 166.921 80.1493 168.977 80.6166 170.099C80.6166 170.099 81.8314 174.397 88.2795 174.865L88.3729 174.21C88.3729 174.21 80.6166 174.117 80.8035 166.921C80.8035 166.921 80.6166 163.838 80.9904 160.006C80.9904 160.006 81.3642 158.978 79.1214 155.24C79.1214 155.24 78.1869 153.652 78.9345 152.063L78.5607 152.25Z" fill="#BEBEBE"/>
<path d="M81.3642 150.474C81.3642 150.474 80.8035 152.997 82.2052 154.306C82.2052 154.306 83.7004 155.988 83.8873 159.819C83.8873 159.819 83.9808 160.66 83.7004 162.155C83.7004 162.155 83.4201 164.585 83.7004 166.828C83.7004 166.828 83.7004 167.762 84.1677 168.697C84.1677 168.697 85.0087 170.005 86.6908 170.379H86.8777H91.5502C91.5502 170.379 92.5781 170.659 92.2044 171.314C92.2044 171.314 92.0175 171.594 91.8306 171.687L91.6437 171.781C91.6437 171.781 92.5781 171.22 91.4568 170.846L86.7843 171.033C86.7843 171.033 84.9153 170.846 83.5135 168.977C83.5135 168.977 82.6725 168.043 82.9528 162.062C82.9528 162.062 83.7004 157.763 81.6445 154.679C81.6445 154.679 79.9624 152.997 80.71 150.755L81.3642 150.474Z" fill="#BEBEBE"/>
<path d="M80.4297 147.204C80.2428 146.549 80.0559 144.68 80.8035 143.372L80.8969 143.466C80.2428 144.587 80.4297 146.456 80.4297 147.204Z" fill="white"/>
<path d="M80.8035 148.699C80.6166 148.231 80.5231 147.671 80.5231 147.39C80.5231 147.297 80.5231 147.203 80.4297 147.203H80.5231C80.5231 147.203 80.5231 147.297 80.6166 147.39C80.71 147.671 80.8035 148.325 80.8035 148.699Z" fill="white"/>
<path d="M81.1773 150.568C81.0838 149.82 80.9904 149.259 80.8969 148.699H80.9904C81.0838 149.259 81.1773 149.82 81.1773 150.568Z" fill="white"/>
<path d="M78.5607 155.053C78.1869 154.399 77.8131 153.371 78.5607 152.25L78.6541 152.343C77.9065 153.558 78.3738 154.399 78.5607 155.053Z" fill="white"/>
<path d="M80.4297 159.352C80.2428 158.137 79.7755 157.296 79.1214 156.268C78.9345 155.894 78.6541 155.521 78.4672 155.053L78.5607 154.96C78.7476 155.427 79.0279 155.801 79.2148 156.175C79.869 157.203 80.4297 158.137 80.4297 159.352Z" fill="white"/>
<path d="M80.5231 159.913C80.4297 159.726 80.4297 159.632 80.4297 159.352H80.5231C80.6166 159.539 80.5231 159.726 80.5231 159.913C80.5231 159.819 80.5231 159.819 80.5231 159.913Z" fill="white"/>
<path d="M80.3362 168.323C80.1493 166.828 80.1493 162.903 80.5231 159.913H80.6166C80.2428 162.903 80.2428 166.921 80.3362 168.323Z" fill="white"/>
<path d="M82.6725 172.528C81.0838 171.127 80.71 170.379 80.4297 168.23H80.5231C80.8035 170.286 81.1773 171.127 82.6725 172.528Z" fill="white"/>
<path d="M88.186 174.584C85.476 174.491 83.8873 173.556 82.6725 172.528C83.9808 173.463 85.5694 174.397 88.186 174.584Z" fill="white"/>
<path d="M88.6533 172.061C88.9336 171.5 89.5878 171.5 90.2419 171.781H90.1485C89.9616 171.781 89.214 171.5 88.6533 172.061Z" fill="white"/>
<path d="M91.6437 172.155C91.2699 172.155 90.7092 171.968 90.3354 171.874V171.781C91.3633 172.061 92.2044 172.341 92.4847 171.5H92.5782C92.3913 172.061 92.0175 172.155 91.6437 172.155Z" fill="white"/>
<path d="M92.0174 171.781C92.2043 171.5 92.2978 171.22 92.2043 171.127C92.1109 170.94 92.0174 170.846 91.6436 170.753V170.659C92.0174 170.753 92.2043 170.94 92.2978 171.127C92.4847 171.407 92.3912 171.594 92.0174 171.781Z" fill="white"/>
<path d="M91.7371 170.659H86.9712V170.753H91.7371V170.659Z" fill="white"/>
<path d="M86.9712 170.659C85.7563 170.659 84.3546 169.631 83.8873 168.79L83.9808 168.697C84.5415 169.631 85.7563 170.472 86.9712 170.566V170.659Z" fill="white"/>
<path d="M83.7939 168.79C83.5135 168.23 82.9528 166.454 83.2332 162.249H83.3266C83.0463 166.548 83.607 168.136 83.7939 168.79Z" fill="white"/>
<path d="M83.4201 162.342C83.7939 159.726 83.5135 157.389 82.4856 155.52L82.6725 155.427C83.607 157.296 83.8873 159.726 83.4201 162.342Z" fill="white"/>
<path d="M82.579 155.52C82.579 155.427 82.4856 155.334 82.4856 155.334C82.2987 155.053 82.2052 154.679 81.738 154.306L81.8314 154.212C82.2052 154.679 82.3921 155.053 82.579 155.334C82.579 155.427 82.6725 155.427 82.579 155.52Z" fill="white"/>
<path d="M81.738 154.306C81.2707 153.745 80.71 152.343 81.0838 150.755H81.1773C80.8035 152.343 81.3642 153.651 81.738 154.306Z" fill="white"/>
<path d="M82.6725 151.222C82.579 150.848 82.4856 150.661 82.2987 150.661C82.1118 150.474 81.738 150.474 81.5511 150.568V150.474C81.8314 150.381 82.1118 150.381 82.3921 150.568C82.579 150.661 82.7659 150.848 82.8594 151.222H82.6725Z" fill="white"/>
<path d="M82.6725 151.876C82.6725 151.689 82.6725 151.409 82.6725 151.222C82.6725 151.409 82.7659 151.689 82.6725 151.876Z" fill="white"/>
<path d="M83.3266 153.558C83.1397 153.558 82.9528 153.371 82.7659 153.184C82.579 152.904 82.4856 152.437 82.6725 151.782C82.4856 152.343 82.579 152.81 82.8594 153.091C83.0463 153.278 83.1397 153.371 83.3266 153.371V153.558Z" fill="white"/>
<path d="M83.5135 146.549C83.1397 145.148 83.0463 143.092 83.8873 141.97H83.9808C83.1397 143.092 83.3266 145.054 83.5135 146.549Z" fill="white"/>
<path d="M84.2611 150.942C84.0742 149.633 84.0742 148.979 83.4201 146.643H83.5135C84.1677 149.073 84.1677 149.54 84.2611 150.942Z" fill="white"/>
<path d="M83.4201 153.465C84.2611 152.997 84.3546 152.343 84.3546 150.942H84.448C84.448 152.156 84.3546 153.091 83.4201 153.465Z" fill="white"/>
<path d="M118.09 148.512C117.716 149.353 117.716 154.773 117.716 154.773C117.529 154.68 114.913 153.465 114.913 153.465C113.324 152.997 114.726 147.297 114.726 147.297C115.847 142.905 114.258 141.783 114.258 141.783C117.529 143.559 118.09 143.466 118.09 143.466C119.305 145.335 118.183 148.512 118.09 148.512Z" fill="white"/>
<path d="M117.81 154.773C117.623 154.68 115.006 153.465 115.006 153.465C114.352 153.278 114.072 152.156 114.259 150.194C114.445 148.699 114.726 147.297 114.726 147.297C115.286 145.054 115.193 143.652 114.913 142.905C114.726 142.064 114.352 141.783 114.352 141.783C117.529 143.466 118.09 143.466 118.183 143.466C119.118 144.867 118.557 147.11 118.37 148.045C118.277 148.231 118.183 148.512 118.183 148.512C117.716 149.353 117.81 154.68 117.81 154.773ZM114.445 141.783C114.632 141.97 114.819 142.251 115.006 142.811C115.193 143.559 115.38 144.961 114.819 147.204C114.819 147.297 113.511 152.997 115.006 153.371C115.006 153.371 117.436 154.586 117.81 154.68C117.81 154.212 117.81 149.259 118.183 148.512C118.183 148.418 118.464 147.671 118.651 146.643C118.838 145.708 118.838 144.4 118.183 143.466C118.09 143.466 117.436 143.372 114.445 141.783Z" fill="#5F5F5F"/>
<path d="M117.716 143.372C118.464 144.493 118.277 146.176 118.277 146.176C118.09 147.858 117.716 148.699 117.716 148.699C117.342 150.381 117.529 150.661 117.529 150.661L117.81 150.848C117.81 150.194 117.996 148.792 117.996 148.792C118.557 147.204 118.557 146.082 118.557 146.082C118.744 144.12 117.996 143.372 117.996 143.372H117.716Z" fill="#BEBEBE"/>
<path d="M115.1 142.064C116.314 143.466 115.473 146.736 115.473 146.736C113.417 153.745 116.034 153.465 116.034 153.465H115.286C114.258 153.278 114.352 151.409 114.352 151.409C114.445 148.979 115.006 146.736 115.006 146.736C115.847 142.811 114.539 141.783 114.539 141.783L115.1 142.064Z" fill="#BEBEBE"/>
<path d="M120.52 152.437C120.426 152.343 118.37 151.035 117.342 150.381C117.249 150.287 117.062 150.287 116.969 150.287C115.66 150.381 116.034 151.969 116.034 151.969C116.314 153.838 115.1 153.371 115.1 153.371L120.146 155.894C121.174 153.558 120.52 152.437 120.52 152.437Z" fill="#AAA4A4"/>
<path d="M117.716 150.568C117.155 150.007 116.501 150.381 116.501 150.381C115.754 150.755 115.941 151.876 115.941 151.876C116.221 153.558 115.1 153.371 115.1 153.371L115.567 153.558C116.501 153.184 116.221 151.876 116.221 151.876C116.034 151.315 116.314 150.755 116.314 150.755C116.688 150.194 117.529 150.568 117.529 150.568H117.716Z" fill="#BEBEBE"/>
<path d="M120.333 152.25C121.548 153.371 120.239 155.801 120.239 155.801C118.464 158.978 118.557 159.445 118.557 159.445C119.118 166.828 118.651 169.258 118.651 169.258C117.436 174.865 110.614 174.958 110.614 174.958H106.969L106.502 171.594C106.035 170.846 107.156 170.566 107.156 170.566H111.829C112.763 170.566 114.165 169.631 114.632 168.884C115.1 168.136 115.567 164.866 115.1 161.595C114.632 158.231 115.847 155.147 116.782 154.306C117.716 153.465 117.81 152.063 117.529 150.474L120.333 152.25Z" fill="white"/>
<path d="M106.876 174.865L106.409 171.5C106.315 171.314 106.222 171.127 106.315 170.94C106.502 170.566 107.063 170.379 107.063 170.379H111.735C112.67 170.379 114.072 169.445 114.539 168.697C115.1 168.043 115.473 164.772 115.006 161.408C114.819 159.539 115.1 157.857 115.286 156.829C115.567 155.614 116.127 154.586 116.595 154.119C117.436 153.371 117.623 152.063 117.342 150.287L120.239 152.063C121.454 153.091 120.146 155.614 120.146 155.614C118.37 158.698 118.464 159.259 118.464 159.259C119.024 166.548 118.557 169.071 118.557 169.071C118.277 170.379 117.623 171.5 116.782 172.342C116.034 172.996 115.1 173.65 114.072 174.024C112.203 174.771 110.52 174.771 110.52 174.771L106.876 174.865ZM106.876 174.865H110.52C110.52 174.865 112.203 174.865 114.072 174.117C115.754 173.463 117.996 172.061 118.557 169.164C118.557 169.164 119.118 166.735 118.464 159.352C118.464 159.352 118.37 158.791 120.146 155.707C120.146 155.707 121.454 153.278 120.239 152.156L117.436 150.381C117.716 152.063 117.436 153.465 116.688 154.119C116.221 154.586 115.754 155.521 115.38 156.735C115.1 157.763 114.819 159.445 115.1 161.314C115.567 164.772 115.1 167.949 114.632 168.697C114.072 169.445 112.67 170.379 111.829 170.379H107.156C107.156 170.379 106.596 170.566 106.409 170.94C106.315 171.127 106.315 171.22 106.502 171.5L106.876 174.865Z" fill="#5F5F5F"/>
<path d="M106.969 176.827C108.184 177.575 110.801 176.547 110.801 176.547C110.894 176.266 110.24 172.061 110.24 172.061C109.679 171.127 108.558 171.781 108.558 171.781C106.502 172.622 106.409 171.407 106.409 171.407C106.128 171.874 106.969 176.734 106.969 176.827Z" fill="#AAA4A4"/>
<path d="M99.4 179.07C103.886 179.07 105.941 178.603 105.941 178.603C109.025 178.322 110.614 176.547 110.614 176.547C110.707 174.117 110.053 172.061 110.053 172.061C110.053 172.061 110.707 173.463 105.381 174.491C105.381 174.491 102.11 174.771 99.2131 174.771C96.4096 174.771 93.0454 174.491 93.0454 174.491C87.7188 173.556 88.3729 172.061 88.3729 172.061C88.3729 172.061 87.8122 174.117 87.8122 176.547C87.8122 176.547 89.4943 178.229 92.4847 178.603C92.7651 178.509 94.9144 179.07 99.4 179.07Z" fill="white"/>
<path d="M99.4 179.07C95.2882 179.07 93.2323 178.696 92.8585 178.603C89.7747 178.322 88.186 176.547 88.186 176.547C88.0926 174.304 88.6533 172.435 88.7467 172.061V171.968C88.7467 171.968 88.7467 171.968 88.7467 172.061C88.7467 172.155 88.7467 172.248 88.8402 172.528C89.1205 173.089 90.1485 173.837 93.4192 174.397C93.4192 174.397 96.6899 174.678 99.5869 174.678C102.484 174.678 105.755 174.397 105.755 174.397C108.932 173.837 110.053 173.089 110.334 172.528C110.427 172.341 110.427 172.155 110.427 172.061V171.968C110.427 171.968 110.427 171.968 110.427 172.061C110.521 172.435 110.988 174.304 110.988 176.547C110.988 176.547 109.306 178.322 106.315 178.603C106.035 178.603 103.886 179.07 99.4 179.07ZM92.7651 178.509C93.1389 178.603 95.2882 178.976 99.3065 178.976C103.699 178.976 105.848 178.509 105.848 178.509C108.838 178.229 110.521 176.547 110.521 176.453C110.614 174.397 110.147 172.715 109.96 172.155C109.96 172.248 109.96 172.341 109.866 172.435C109.586 172.996 108.558 173.743 105.287 174.304C105.287 174.304 102.017 174.584 99.1196 174.584C96.2227 174.584 93.2323 174.397 93.2323 174.397C89.9616 173.837 88.9336 173.089 88.6533 172.528C88.5598 172.341 88.5598 172.341 88.5598 172.248C88.3729 172.809 87.9991 174.491 87.9991 176.547C88.186 176.64 89.8681 178.229 92.7651 178.509Z" fill="#5F5F5F"/>
<path d="M110.147 171.968C109.586 171.033 108.465 171.687 108.465 171.687C106.502 172.528 106.315 171.313 106.315 171.313C106.035 172.902 108.558 172.061 108.558 172.061C109.586 171.5 110.24 172.155 110.24 172.155L110.147 171.968Z" fill="#BEBEBE"/>
<path d="M99.4 174.678C96.4096 174.678 93.2323 174.397 93.2323 174.397C93.2323 174.397 88.7467 173.743 88.5598 172.248L88.3729 172.902C88.3729 172.902 87.8122 174.117 93.1389 174.958C93.1389 174.958 95.9423 175.238 99.3065 175.238C102.671 175.238 105.474 174.958 105.474 174.958C110.801 174.024 110.24 172.902 110.24 172.902L110.053 172.248C109.866 173.743 105.381 174.397 105.381 174.397C105.381 174.397 102.39 174.678 99.4 174.678Z" fill="#BEBEBE"/>
<path d="M99.4 178.509C97.7179 178.603 95.4751 178.322 95.4751 178.322C94.6341 178.229 92.6716 177.855 92.6716 177.855C92.6716 177.855 89.4943 177.388 87.9991 175.425V176.36C87.9991 176.36 89.6812 178.135 92.6716 178.416C92.6716 178.416 93.0454 178.509 93.6996 178.603C93.6996 178.603 96.0358 178.883 99.2131 178.883C102.39 178.883 104.727 178.603 104.727 178.603C105.381 178.509 105.755 178.416 105.755 178.416C108.838 178.135 110.427 176.36 110.427 176.36V175.425C108.932 177.481 105.755 177.855 105.755 177.855C105.755 177.855 103.886 178.229 102.951 178.322C103.325 178.416 100.989 178.603 99.4 178.509Z" fill="#BEBEBE"/>
<path d="M119.959 151.969C120.893 153.558 119.772 155.147 119.772 155.147C117.529 158.791 117.903 159.913 117.903 159.913C118.277 163.837 118.09 166.828 118.09 166.828C118.277 174.117 110.521 174.117 110.521 174.117L110.614 174.771C116.969 174.21 118.277 170.005 118.277 170.005C118.744 168.977 118.744 166.828 118.744 166.828C118.931 163.744 118.464 159.258 118.464 159.258C118.651 158.324 119.211 157.296 119.772 156.362C120.146 155.707 120.333 155.427 120.333 155.427C121.454 152.904 120.333 152.156 120.333 152.156L119.959 151.969Z" fill="#BEBEBE"/>
<path d="M117.996 150.848C118.651 153.091 117.062 154.773 117.062 154.773C115.006 157.857 115.754 162.155 115.754 162.155C116.127 168.136 115.193 169.071 115.193 169.071C113.791 171.033 111.922 171.127 111.922 171.127L107.25 170.94C106.128 171.127 107.063 171.874 107.063 171.874L106.876 171.781C106.596 171.594 106.502 171.407 106.502 171.407C106.128 170.753 107.156 170.472 107.156 170.472H111.829H112.016C113.698 170.005 114.539 168.79 114.539 168.79C115.006 167.856 115.006 166.921 115.006 166.921C115.286 164.679 115.006 162.249 115.006 162.249C114.819 160.754 114.819 159.913 114.819 159.913C115.006 155.988 116.501 154.399 116.501 154.399C117.903 153.091 117.342 150.568 117.342 150.568L117.996 150.848Z" fill="#BEBEBE"/>
<path d="M118.37 147.204C118.464 146.549 118.557 144.774 117.903 143.466L117.996 143.372C118.744 144.587 118.557 146.456 118.37 147.204Z" fill="white"/>
<path d="M117.996 148.699C118.09 148.231 118.183 147.671 118.183 147.39C118.183 147.297 118.183 147.203 118.277 147.203H118.37C118.37 147.203 118.37 147.297 118.277 147.39C118.277 147.671 118.09 148.325 117.996 148.699Z" fill="white"/>
<path d="M117.716 150.568C117.716 149.82 117.81 149.259 117.903 148.605H117.997C117.81 149.166 117.716 149.82 117.716 150.568Z" fill="white"/>
<path d="M120.239 155.053C120.52 154.399 120.893 153.465 120.146 152.25L120.239 152.156C120.987 153.465 120.613 154.399 120.239 155.053Z" fill="white"/>
<path d="M118.37 159.352C118.464 158.137 118.931 157.203 119.585 156.175C119.772 155.801 120.052 155.427 120.239 154.96L120.333 155.053C120.146 155.521 119.865 155.894 119.679 156.268C119.024 157.296 118.464 158.137 118.37 159.352Z" fill="white"/>
<path d="M118.183 159.913C118.183 159.726 118.183 159.632 118.183 159.352H118.277C118.277 159.539 118.277 159.632 118.183 159.913Z" fill="white"/>
<path d="M118.464 168.323C118.651 166.828 118.557 162.903 118.277 159.913H118.37C118.557 162.903 118.651 166.828 118.464 168.323Z" fill="white"/>
<path d="M116.221 172.528C117.623 171.127 118.09 170.286 118.37 168.23H118.464C118.09 170.379 117.716 171.127 116.221 172.528Z" fill="white"/>
<path d="M110.614 174.584C113.231 174.397 114.819 173.463 116.034 172.528L116.127 172.622C114.913 173.556 113.324 174.491 110.614 174.584Z" fill="white"/>
<path d="M106.783 178.229C108.838 177.668 109.96 176.734 110.707 176.079L110.801 176.173C109.96 176.827 108.838 177.762 106.783 178.229Z" fill="white"/>
<path d="M98.372 178.883C95.4751 178.883 93.1388 178.509 91.924 178.322L91.5502 178.135H91.6437C89.7747 177.575 88.7467 176.734 88.0926 176.079L88.186 175.986C88.8402 176.64 90.055 177.668 92.1109 178.042H92.2978C93.6061 178.322 96.2227 178.696 99.4934 178.603C103.045 178.696 105.848 178.229 106.876 178.042V178.135C105.848 178.322 103.045 178.883 99.4934 178.696C99.1196 178.883 98.7458 178.883 98.372 178.883Z" fill="white"/>
<path d="M105.568 174.678C108.371 174.21 109.96 173.556 110.24 172.622H110.334C110.053 173.65 108.465 174.304 105.568 174.678Z" fill="white"/>
<path d="M110.053 172.061C109.493 171.5 108.745 171.781 108.558 171.874L108.465 171.781C109.119 171.5 109.773 171.594 110.053 172.061Z" fill="white"/>
<path d="M107.25 172.155C106.783 172.155 106.502 171.968 106.315 171.594H106.409C106.689 172.435 107.53 172.155 108.558 171.874V171.968C107.997 172.061 107.624 172.155 107.25 172.155Z" fill="white"/>
<path d="M99.4 175.051C96.0358 175.051 93.6996 174.865 93.2323 174.771C90.3354 174.397 88.7467 173.743 88.5598 172.715H88.6533C88.9336 173.65 90.5223 174.397 93.3258 174.771C93.793 174.771 96.1292 174.958 99.4 175.051C102.858 174.958 105.194 174.771 105.568 174.678V174.771C105.1 174.771 102.858 175.051 99.4 175.051Z" fill="white"/>
<path d="M106.689 171.781C106.409 171.5 106.315 171.22 106.409 171.127C106.502 170.94 106.689 170.753 107.063 170.659V170.753C106.689 170.846 106.502 170.94 106.502 171.127C106.502 171.314 106.596 171.5 106.689 171.781Z" fill="white"/>
<path d="M111.829 170.659H107.063V170.753H111.829V170.659Z" fill="white"/>
<path d="M111.829 170.659C113.044 170.472 114.352 169.631 114.819 168.697L114.913 168.79C114.445 169.725 113.044 170.659 111.829 170.659Z" fill="white"/>
<path d="M114.913 168.79C115.1 168.136 115.66 166.454 115.38 162.249H115.473C115.754 166.548 115.286 168.23 114.913 168.79Z" fill="white"/>
<path d="M115.38 162.342C114.913 159.726 115.193 157.296 116.221 155.427L116.314 155.52C115.286 157.389 115.006 159.726 115.38 162.342Z" fill="white"/>
<path d="M116.221 155.521C116.127 155.334 116.221 155.334 116.221 155.24C116.408 154.96 116.595 154.586 116.969 154.119L117.062 154.212C116.688 154.679 116.501 155.053 116.314 155.24C116.314 155.427 116.221 155.427 116.221 155.521Z" fill="white"/>
<path d="M117.062 154.306C117.436 153.745 117.996 152.343 117.623 150.755H117.716C118.09 152.343 117.529 153.745 117.062 154.306Z" fill="white"/>
<path d="M116.221 151.222C116.221 150.848 116.408 150.661 116.595 150.568C116.782 150.381 117.155 150.381 117.436 150.474V150.568C117.249 150.474 116.875 150.474 116.688 150.661C116.408 150.661 116.221 150.941 116.221 151.222Z" fill="white"/>
<path d="M116.128 151.876C116.034 151.689 116.128 151.409 116.128 151.222H116.221C116.221 151.409 116.128 151.689 116.128 151.876Z" fill="white"/>
<path d="M115.473 153.558C115.66 153.465 115.847 153.371 115.941 153.184C116.128 152.904 116.221 152.343 116.128 151.876H116.221C116.408 152.437 116.314 152.904 116.034 153.278C115.847 153.465 115.754 153.558 115.473 153.558Z" fill="white"/>
<path d="M115.286 146.549C115.567 145.148 115.66 143.185 114.819 142.064L114.913 141.97C115.754 143.092 115.567 145.054 115.286 146.549Z" fill="white"/>
<path d="M114.445 150.941C114.445 149.54 114.539 148.979 115.193 146.549H115.286C114.632 148.979 114.632 149.446 114.445 150.941Z" fill="white"/>
<path d="M115.38 153.465C114.445 153.091 114.445 152.25 114.445 150.942H114.539C114.539 152.343 114.632 152.997 115.38 153.465Z" fill="white"/>
</g>
<defs>
<clipPath id="clip0_201_3">
<rect width="42.8" height="56.0699" fill="white" transform="translate(78 123)"/>
</clipPath>
</defs>
</svg>
